<svg id="svg" version="1.1" width="400" height="400" viewBox="0 0 400 400" xmlns="http://www.w3.org/2000/svg" xmlns:xlink="http://www.w3.org/1999/xlink"><g id="svgg"><path id="path0" d="M0.000 8.200 L 0.000 16.400 6.389 16.400 L 12.779 16.400 14.589 14.589 L 16.400 12.779 16.400 6.389 L 16.400 0.000 8.200 0.000 L 0.000 0.000 0.000 8.200 M139.200 6.370 L 139.200 12.739 138.100 13.600 C 137.495 14.074,134.570 16.053,131.600 17.998 C 125.326 22.107,119.846 26.422,115.579 30.612 L 112.558 33.580 111.179 32.445 C 106.122 28.284,92.701 22.800,87.575 22.800 C 82.296 22.800,66.573 29.294,63.421 32.777 C 62.699 33.575,62.289 33.600,49.949 33.600 L 37.221 33.600 35.400 35.421 C 33.364 37.457,33.371 37.529,35.720 39.144 L 37.400 40.299 49.800 40.797 L 62.200 41.295 64.553 43.057 C 69.488 46.754,75.529 49.439,83.288 51.381 L 87.499 52.436 90.849 51.273 C 98.221 48.715,105.940 44.973,110.495 41.750 L 112.389 40.409 115.495 42.445 C 122.027 46.729,134.676 52.142,138.000 52.076 C 143.457 51.967,157.196 46.243,161.505 42.283 L 162.410 41.451 163.505 42.321 C 168.380 46.192,175.676 49.509,183.400 51.366 C 191.817 53.389,192.456 53.635,194.411 55.589 C 200.687 61.865,196.545 70.084,185.557 73.158 C 177.139 75.514,170.633 79.386,166.394 84.562 C 163.971 87.521,163.976 87.282,166.264 90.653 C 171.667 98.616,178.160 104.889,186.452 110.160 C 189.131 111.864,202.169 100.465,208.640 90.762 C 211.848 85.953,212.078 85.758,214.993 85.407 C 223.917 84.333,227.155 78.992,227.192 65.287 C 227.229 51.433,237.572 49.381,258.800 59.017 L 262.600 60.741 267.600 60.368 C 285.048 59.066,288.496 56.221,289.987 41.897 L 290.434 37.594 289.258 35.897 C 286.216 31.510,277.140 23.722,268.400 17.998 C 265.430 16.053,262.505 14.074,261.900 13.600 L 260.800 12.739 260.800 6.370 L 260.800 0.000 255.400 0.000 L 250.000 0.000 250.000 6.077 L 250.000 12.153 251.570 14.777 C 253.511 18.019,257.304 21.726,261.000 23.992 C 266.261 27.219,278.000 36.623,278.000 37.610 C 278.000 39.518,270.179 46.585,265.634 48.784 L 262.827 50.142 258.113 49.079 C 252.655 47.848,248.517 47.109,241.800 46.168 C 233.329 44.981,229.782 41.826,229.020 34.800 C 228.512 30.117,226.795 20.280,225.787 16.284 C 224.949 12.959,224.800 11.435,224.800 6.184 L 224.800 0.000 219.600 0.000 L 214.400 0.000 214.400 6.344 L 214.400 12.688 215.942 16.044 C 217.834 20.163,219.994 26.644,221.579 32.954 L 222.772 37.708 221.957 40.128 C 219.413 47.679,211.047 49.868,205.589 44.411 C 202.110 40.931,201.994 39.253,203.039 7.300 L 203.278 0.000 190.606 -0.000 L 177.934 -0.000 178.070 6.900 C 178.271 17.046,179.441 18.925,187.494 22.032 C 189.702 22.884,193.052 28.761,195.028 35.245 C 196.099 38.762,193.861 42.563,189.429 44.753 L 187.500 45.706 185.250 44.812 C 179.552 42.548,172.640 38.586,171.971 37.200 C 171.812 36.870,171.348 35.792,170.941 34.804 C 167.298 25.971,155.580 26.397,153.557 35.436 C 152.905 38.349,148.508 41.346,140.119 44.595 L 137.239 45.711 130.719 42.456 C 127.134 40.665,123.689 38.790,123.064 38.289 L 121.929 37.378 125.064 34.550 C 131.849 28.431,136.963 24.970,140.033 24.422 C 148.037 22.992,150.000 19.313,150.000 5.748 L 150.000 0.000 144.600 0.000 L 139.200 0.000 139.200 6.370 M91.947 31.135 C 97.456 33.510,103.391 37.154,102.757 37.773 C 102.069 38.445,93.885 42.854,91.003 44.105 L 87.406 45.667 85.203 44.775 C 80.875 43.024,79.356 42.283,76.154 40.360 C 71.102 37.327,71.033 37.661,77.511 33.818 C 84.676 29.568,87.218 29.096,91.947 31.135 M334.565 48.749 C 326.862 51.782,314.400 60.324,314.400 62.571 C 314.400 66.605,331.216 77.200,337.619 77.200 C 345.173 77.200,361.221 65.944,360.585 61.092 C 359.475 52.628,356.976 49.945,349.000 48.649 C 341.693 47.461,337.766 47.488,334.565 48.749 M214.405 55.202 C 218.021 57.047,220.737 60.814,220.241 63.295 C 219.732 65.842,217.139 70.443,214.828 72.902 L 212.497 75.382 210.458 74.427 C 207.057 72.834,205.629 70.550,204.766 65.327 C 203.771 59.299,209.872 52.890,214.405 55.202 M340.332 55.460 C 344.888 57.271,350.536 61.609,349.828 62.754 C 348.824 64.380,339.133 70.378,337.487 70.393 C 335.154 70.415,324.376 63.193,325.222 62.174 C 326.249 60.936,336.461 54.496,337.532 54.411 C 337.604 54.405,338.864 54.877,340.332 55.460 M381.294 59.399 C 372.989 60.904,371.006 62.146,374.313 63.768 C 379.142 66.136,383.871 70.873,386.251 75.725 L 387.367 78.000 393.683 78.000 L 400.000 78.000 400.000 68.400 L 400.000 58.800 392.100 58.836 C 387.471 58.857,382.997 59.090,381.294 59.399 M32.000 76.151 C 23.417 78.584,14.415 84.354,14.402 87.431 C 14.392 89.866,27.668 98.704,36.000 101.809 C 44.570 105.003,47.286 108.651,47.980 117.897 C 48.663 127.002,49.549 129.977,52.328 132.487 C 57.030 136.736,68.973 136.426,73.284 131.943 C 75.843 129.282,76.254 127.250,77.598 110.600 C 78.786 95.883,80.894 92.941,92.087 90.374 C 95.009 89.704,98.660 88.777,100.200 88.315 L 103.000 87.475 95.200 85.546 L 87.400 83.617 74.931 83.608 L 62.461 83.600 61.258 82.588 C 58.040 79.880,49.682 76.884,41.200 75.398 C 36.930 74.650,37.445 74.608,32.000 76.151 M193.800 80.606 C 197.192 81.737,200.000 84.639,200.000 87.013 C 200.000 88.652,188.996 100.000,187.407 100.000 C 186.757 100.000,179.607 93.221,176.932 90.068 L 174.704 87.441 175.852 86.495 C 183.668 80.053,187.940 78.652,193.800 80.606 M41.529 81.831 C 49.947 84.656,53.294 87.029,52.772 89.800 C 52.008 93.849,49.913 94.981,42.343 95.434 L 37.788 95.706 35.194 94.401 C 32.542 93.067,25.994 88.757,25.241 87.849 C 24.404 86.841,34.880 80.842,37.529 80.811 C 38.041 80.805,39.841 81.264,41.529 81.831 M64.473 98.706 C 71.741 106.475,71.864 115.450,64.805 122.911 L 62.450 125.400 60.212 123.050 C 58.774 121.540,57.372 119.468,56.287 117.250 L 54.600 113.800 54.666 108.600 C 54.780 99.564,56.147 97.444,62.245 96.844 C 62.490 96.820,63.493 97.658,64.473 98.706 M282.600 98.793 C 272.650 101.418,263.402 106.475,259.513 111.420 L 258.680 112.479 260.604 120.340 C 262.647 128.686,263.280 130.060,265.761 131.524 C 269.405 133.674,275.399 135.005,283.400 135.440 L 287.800 135.680 291.272 134.034 C 295.415 132.070,302.474 129.741,308.800 128.251 C 318.057 126.071,321.483 125.106,325.411 123.574 C 329.492 121.981,334.579 119.116,336.415 117.376 C 337.395 116.447,337.740 116.400,346.415 116.011 C 364.482 115.203,362.564 115.419,364.589 113.965 C 366.765 112.402,366.748 112.760,364.749 110.591 L 363.098 108.800 350.504 108.800 L 337.910 108.800 335.502 106.990 C 325.884 99.760,317.642 97.594,299.841 97.616 L 287.000 97.633 282.600 98.793 M315.312 105.425 C 319.543 107.168,320.496 107.639,323.846 109.645 C 328.238 112.274,328.355 112.453,326.502 113.696 C 320.820 117.511,313.959 120.504,309.800 120.983 C 304.878 121.550,294.991 123.279,291.266 124.224 L 287.415 125.201 284.495 123.814 C 277.992 120.726,270.870 113.519,272.715 111.893 C 273.707 111.019,278.550 108.118,280.516 107.220 C 287.066 104.230,285.654 104.435,299.912 104.416 L 312.824 104.400 315.312 105.425 M34.000 140.890 C 24.869 145.183,14.970 147.598,6.500 147.599 L 0.000 147.600 0.000 151.046 L 0.000 154.492 8.100 154.291 C 16.683 154.078,23.654 153.139,33.112 150.922 L 37.624 149.864 40.112 151.015 C 44.961 153.259,50.319 157.796,52.475 161.484 C 53.818 163.781,48.103 169.788,41.136 173.403 L 37.673 175.200 18.836 175.200 L 0.000 175.200 0.000 180.400 L 0.000 185.600 20.915 185.600 C 54.480 185.600,59.322 184.499,63.654 175.883 C 66.224 170.773,70.817 166.156,75.725 163.749 C 78.351 162.461,78.283 162.656,77.055 159.911 C 74.808 154.889,70.225 150.344,65.078 148.035 C 63.504 147.329,62.174 146.406,61.631 145.644 C 59.243 142.290,51.778 140.099,40.600 139.471 C 37.528 139.298,37.264 139.355,34.000 140.890 M133.783 141.504 C 126.917 145.863,120.833 150.582,114.883 156.163 C 112.327 158.561,112.083 158.692,109.726 158.931 C 104.524 159.459,97.200 161.458,97.200 162.350 C 97.200 162.488,98.055 163.045,99.100 163.588 C 104.050 166.158,108.557 170.594,111.033 175.332 C 115.665 184.194,119.244 185.233,146.000 185.487 L 163.000 185.648 168.400 182.057 C 174.766 177.823,180.238 173.497,184.418 169.391 C 187.248 166.611,187.609 166.387,190.218 165.793 C 194.664 164.781,202.567 162.767,202.729 162.605 C 202.963 162.370,197.840 160.937,192.600 159.771 C 187.891 158.723,187.758 158.663,185.600 156.611 C 179.808 151.103,172.773 145.620,166.182 141.475 L 162.564 139.200 149.982 139.204 L 137.400 139.209 133.783 141.504 M258.356 142.661 C 253.021 147.105,242.602 155.573,241.246 156.568 C 240.671 156.990,239.658 157.838,238.996 158.453 C 237.971 159.405,237.172 159.661,233.596 160.184 C 228.862 160.877,223.670 161.940,222.859 162.383 C 222.261 162.709,228.546 164.095,234.000 164.840 C 236.753 165.216,237.742 165.549,239.200 166.592 C 242.556 168.992,248.978 172.311,254.800 174.655 L 260.600 176.989 285.600 177.347 C 299.350 177.544,311.500 177.723,312.600 177.746 C 319.785 177.890,340.069 177.074,342.200 176.555 C 348.600 174.994,351.792 170.884,352.108 163.798 C 352.287 159.768,343.846 150.147,338.271 148.027 C 334.991 146.780,319.811 152.701,313.492 157.693 L 312.385 158.567 309.092 155.359 C 303.876 150.276,298.340 146.005,291.039 141.431 L 287.478 139.200 274.995 139.200 L 262.513 139.200 258.356 142.661 M165.879 152.221 C 169.992 155.316,176.838 161.077,177.461 161.965 C 178.091 162.865,174.685 166.109,167.200 171.737 L 162.600 175.195 149.989 175.198 L 137.377 175.200 134.462 173.803 C 129.805 171.571,124.255 166.800,122.605 163.610 C 121.829 162.110,123.279 160.636,132.790 153.253 L 136.981 150.000 149.955 150.000 L 162.929 150.000 165.879 152.221 M290.420 151.877 C 293.768 154.313,296.698 156.696,300.348 159.953 L 303.295 162.584 301.548 164.111 C 295.325 169.551,291.473 170.535,275.754 170.703 L 262.909 170.841 258.754 168.999 C 254.234 166.996,247.547 163.240,247.327 162.581 C 247.251 162.354,249.107 160.646,251.451 158.785 C 253.795 156.923,257.172 154.187,258.956 152.704 L 262.200 150.008 275.020 150.004 L 287.840 150.000 290.420 151.877 M339.751 156.212 C 343.640 159.380,345.704 162.242,345.029 163.530 C 343.487 166.471,338.963 170.403,337.128 170.396 C 332.743 170.380,321.062 163.812,322.448 162.143 C 322.988 161.492,328.778 157.979,330.800 157.076 C 333.417 155.907,336.999 154.433,337.263 154.416 C 337.408 154.407,338.528 155.215,339.751 156.212 M360.715 184.809 C 359.908 185.474,359.136 186.371,358.999 186.803 C 358.409 188.663,349.409 193.618,341.929 196.202 L 337.658 197.677 334.729 197.021 C 329.381 195.823,321.057 193.134,316.694 191.197 L 312.388 189.284 308.894 191.473 C 301.663 196.004,296.108 200.292,290.908 205.359 L 287.615 208.567 286.508 207.693 C 278.644 201.481,266.470 197.306,258.325 198.028 C 255.836 198.249,249.750 198.771,244.800 199.189 C 229.628 200.469,221.132 202.663,214.738 206.951 C 212.597 208.387,211.393 208.846,207.389 209.754 C 199.020 211.651,196.890 212.384,197.804 213.052 C 198.994 213.923,203.415 215.125,208.084 215.847 L 212.300 216.499 224.888 228.987 C 237.291 241.290,237.506 241.478,239.419 241.741 C 245.538 242.579,246.875 245.163,247.457 257.273 C 247.819 264.798,245.888 268.582,240.200 271.494 C 238.005 272.617,237.597 272.674,222.000 273.999 C 204.482 275.487,193.966 278.245,188.352 282.824 C 187.391 283.608,187.126 283.641,185.142 283.229 C 179.381 282.034,178.272 279.801,177.574 268.000 C 176.783 254.638,173.604 249.889,164.199 248.022 C 156.246 246.442,145.696 243.165,140.407 240.630 L 137.463 239.219 136.032 240.087 C 126.429 245.904,108.800 260.485,108.800 262.611 C 108.800 263.415,114.286 268.130,117.596 270.171 C 122.737 273.341,128.002 275.143,141.200 278.251 C 147.405 279.712,154.539 282.052,158.616 283.962 C 161.116 285.134,162.846 285.643,165.384 285.953 C 167.259 286.182,170.369 286.893,172.296 287.532 C 174.223 288.171,178.355 289.287,181.479 290.011 L 187.157 291.328 200.479 304.575 C 216.898 320.902,218.805 322.216,231.332 325.834 C 237.392 327.584,237.654 327.570,241.004 325.336 C 248.023 320.655,251.360 315.878,253.605 307.296 C 256.219 297.308,259.716 288.340,261.720 286.488 L 262.600 285.676 267.200 286.607 C 269.730 287.119,275.040 288.359,279.000 289.362 L 286.200 291.185 299.145 291.193 L 312.090 291.200 314.498 293.010 C 324.272 300.358,332.542 302.487,350.660 302.320 L 363.800 302.200 366.400 300.946 C 370.967 298.744,373.132 295.818,374.640 289.817 L 375.287 287.239 373.643 283.841 C 370.643 277.644,366.562 274.125,359.657 271.781 C 350.715 268.746,343.417 264.796,340.853 261.606 C 338.082 258.158,330.786 253.432,324.581 251.067 C 316.252 247.893,314.173 247.600,299.966 247.600 C 289.920 247.600,286.677 247.470,284.525 246.980 C 279.353 245.803,270.986 243.101,266.600 241.190 C 263.544 239.858,261.406 239.193,259.600 239.011 C 252.872 238.333,252.218 237.596,257.500 236.644 C 262.947 235.661,263.014 235.633,268.703 231.851 C 274.794 227.801,280.302 223.433,284.421 219.388 L 287.442 216.420 288.821 217.555 C 292.820 220.846,299.141 223.825,306.751 226.007 L 310.914 227.200 324.218 227.200 L 337.521 227.200 339.955 229.030 C 344.566 232.496,348.000 237.129,348.000 239.884 C 348.000 254.250,368.298 255.942,385.502 243.010 L 387.910 241.200 393.955 241.200 L 400.000 241.200 400.000 234.600 L 400.000 228.000 393.678 228.000 L 387.356 228.000 384.735 230.162 C 383.293 231.351,381.005 233.681,379.649 235.340 C 376.502 239.191,372.816 241.529,364.723 244.806 L 362.445 245.729 360.165 244.164 C 357.273 242.179,355.332 239.549,353.403 235.000 C 350.721 228.673,347.397 225.071,341.759 222.380 L 338.448 220.800 325.627 220.800 L 312.806 220.800 309.236 219.371 C 305.338 217.811,299.070 214.391,297.800 213.132 C 297.001 212.339,297.002 212.337,299.200 210.345 C 301.912 207.888,307.947 203.006,310.497 201.207 L 312.394 199.869 316.897 200.925 C 320.968 201.879,330.658 203.554,335.800 204.191 C 339.618 204.664,352.084 201.663,358.869 198.637 C 362.489 197.022,362.875 196.933,364.869 197.242 C 371.984 198.348,386.072 199.695,392.500 199.884 L 400.000 200.105 400.000 194.652 L 400.000 189.200 393.255 189.200 C 385.719 189.200,382.943 188.756,369.569 185.414 C 365.577 184.416,362.282 183.600,362.246 183.600 C 362.211 183.600,361.522 184.144,360.715 184.809 M32.000 189.632 C 22.516 190.349,16.418 192.251,13.707 195.339 L 12.424 196.800 6.212 196.800 L 0.000 196.800 -0.000 212.464 L -0.000 228.129 10.900 227.811 C 16.895 227.636,31.340 227.382,43.000 227.246 L 64.200 227.000 68.915 224.721 C 78.227 220.219,86.308 213.670,85.171 211.545 C 81.724 205.106,73.796 196.870,65.629 191.246 L 62.658 189.200 49.429 189.257 C 42.153 189.288,34.310 189.457,32.000 189.632 M66.947 203.653 C 69.088 205.662,71.821 208.463,73.021 209.877 L 75.203 212.449 74.102 213.369 C 72.185 214.968,67.094 218.249,64.511 219.548 L 62.023 220.800 50.056 220.800 C 36.791 220.800,34.455 220.447,28.569 217.553 C 26.254 216.415,22.000 213.092,22.000 212.422 C 22.000 210.575,29.078 204.015,33.741 201.539 L 36.600 200.021 49.828 200.011 L 63.056 200.000 66.947 203.653 M265.312 205.425 C 269.543 207.168,270.496 207.639,273.846 209.645 C 278.554 212.464,278.511 212.225,274.901 215.481 C 268.092 221.622,262.933 225.109,260.233 225.394 C 255.475 225.896,244.149 227.216,240.876 227.649 L 237.553 228.089 234.622 225.248 C 233.011 223.685,229.509 220.200,226.840 217.503 L 221.987 212.600 222.894 211.854 C 227.887 207.747,235.191 205.738,247.057 205.207 C 252.526 204.962,257.360 204.705,257.800 204.635 C 260.515 204.207,262.985 204.466,265.312 205.425 M0.000 255.948 L 0.000 265.096 7.700 265.305 C 25.099 265.776,33.107 268.809,36.709 276.292 C 39.466 282.020,43.535 283.993,55.141 285.229 C 72.180 287.044,77.150 282.484,77.192 264.996 C 77.209 258.197,66.217 246.959,60.600 248.031 C 52.910 249.499,42.462 254.073,38.514 257.699 C 35.008 260.920,17.699 254.558,13.547 248.523 L 12.362 246.800 6.181 246.800 L 0.000 246.800 0.000 255.948 M141.133 250.772 C 144.625 251.652,151.268 252.844,158.000 253.800 C 164.237 254.686,170.399 259.122,170.400 262.728 C 170.400 265.377,166.560 272.122,163.894 274.156 L 162.539 275.189 158.711 274.218 C 155.006 273.278,145.110 271.549,140.200 270.983 C 134.422 270.318,121.330 263.680,122.510 262.015 C 123.730 260.294,136.593 250.000,137.524 250.000 C 137.822 250.000,139.447 250.348,141.133 250.772 M266.445 250.838 C 276.926 253.454,282.863 254.102,298.800 254.371 C 313.259 254.614,313.872 254.656,315.800 255.531 C 322.110 258.395,327.436 261.562,328.024 262.800 C 328.181 263.130,328.726 264.357,329.235 265.526 C 330.311 267.997,332.255 269.891,334.800 270.947 C 335.790 271.359,338.141 272.384,340.023 273.226 C 345.177 275.532,349.120 276.731,356.400 278.208 L 363.000 279.546 365.409 282.120 C 370.170 287.209,370.164 288.213,365.341 293.100 L 362.874 295.600 350.025 295.600 C 337.203 295.600,337.171 295.598,334.688 294.588 C 329.122 292.326,322.623 288.549,321.971 287.200 C 321.812 286.870,321.348 285.792,320.941 284.804 C 319.934 282.362,318.268 280.558,315.836 279.274 L 313.800 278.200 299.200 277.984 C 282.196 277.732,264.107 276.029,260.310 274.322 C 253.868 271.427,252.765 262.329,257.905 254.494 C 260.797 250.084,261.765 249.669,266.445 250.838 M66.707 258.195 C 70.260 261.748,70.486 262.070,70.248 263.258 C 69.736 265.818,67.153 270.429,64.868 272.860 L 62.577 275.298 59.388 273.694 C 54.053 271.012,50.835 268.276,47.677 263.737 L 46.798 262.474 49.499 260.695 C 53.211 258.251,61.030 254.492,62.556 254.417 C 62.752 254.408,64.620 256.108,66.707 258.195 M243.800 280.636 C 249.144 282.311,250.698 285.320,249.221 291.133 C 248.446 294.185,246.861 303.146,245.960 309.568 L 245.488 312.935 242.364 316.189 C 237.997 320.738,237.878 320.786,234.305 319.418 C 227.627 316.862,222.796 313.608,219.800 309.648 C 218.920 308.485,216.670 306.312,214.800 304.819 C 210.905 301.709,197.400 288.286,197.400 287.525 C 197.400 286.428,207.382 281.804,211.800 280.854 C 214.580 280.256,236.914 279.333,239.600 279.705 C 240.810 279.872,242.700 280.291,243.800 280.636 M110.294 310.611 C 108.808 312.118,108.470 312.750,108.277 314.383 C 107.562 320.417,105.147 321.692,93.056 322.416 C 81.559 323.104,69.907 327.092,63.849 332.411 L 62.537 333.563 61.168 332.437 C 57.135 329.118,50.135 325.864,42.800 323.898 C 39.102 322.907,19.460 321.955,3.500 321.992 L 0.000 322.000 -0.000 344.263 L -0.000 366.527 11.100 366.255 C 49.423 365.319,56.414 363.758,61.492 355.000 L 62.651 353.000 65.226 352.747 C 66.642 352.607,72.214 352.472,77.608 352.447 C 88.808 352.393,90.405 352.112,96.987 349.037 C 105.893 344.875,110.226 340.311,111.002 334.278 C 112.308 324.124,117.325 316.867,125.305 313.594 C 128.261 312.382,128.231 312.363,120.304 310.431 C 112.061 308.423,112.458 308.416,110.294 310.611 M384.200 315.818 C 379.513 318.077,364.211 322.794,361.557 322.799 C 357.260 322.806,343.682 328.551,338.824 332.418 C 337.696 333.315,335.873 333.925,330.060 335.349 C 326.023 336.338,322.615 337.252,322.487 337.380 C 321.625 338.242,327.793 340.187,333.586 340.880 C 336.539 341.234,337.626 341.538,338.400 342.227 C 343.237 346.532,352.197 350.196,364.200 352.777 C 370.358 354.100,378.540 356.686,383.400 358.845 L 387.800 360.800 393.900 360.800 L 400.000 360.800 400.000 355.400 L 400.000 350.000 393.460 350.000 C 387.923 350.000,386.311 349.853,382.960 349.040 C 380.782 348.512,375.940 347.608,372.200 347.031 C 361.921 345.444,361.613 345.373,357.666 343.671 C 354.350 342.241,349.841 339.733,347.841 338.205 C 345.181 336.174,358.380 330.030,368.572 328.555 C 375.948 327.488,382.234 326.300,385.373 325.379 C 386.727 324.981,389.327 324.800,393.673 324.800 L 400.000 324.800 400.000 319.600 L 400.000 314.400 393.500 314.434 L 387.000 314.469 384.200 315.818 M41.709 331.019 C 45.630 332.660,51.937 336.296,52.536 337.260 C 53.617 339.000,45.248 348.668,40.064 351.667 L 37.529 353.135 34.944 351.975 C 29.685 349.615,24.796 344.683,22.755 339.679 L 21.890 337.558 23.045 336.352 C 25.051 334.257,28.463 332.275,32.395 330.919 C 37.152 329.279,37.564 329.283,41.709 331.019 M91.019 330.593 C 94.654 331.961,100.000 336.024,100.000 337.419 C 100.000 338.157,94.039 342.384,90.570 344.106 L 87.341 345.708 83.170 344.357 C 79.080 343.032,74.410 340.400,72.601 338.401 C 71.657 337.358,71.881 337.141,77.000 334.141 C 84.339 329.838,87.134 329.130,91.019 330.593 M275.400 348.616 C 254.794 350.418,244.961 352.817,238.851 357.529 C 237.751 358.378,236.046 358.962,231.800 359.945 C 228.720 360.657,225.218 361.525,224.018 361.872 L 221.835 362.505 224.218 363.707 C 229.829 366.540,233.689 370.664,237.222 377.600 C 239.587 382.244,242.253 385.271,245.118 386.563 L 246.800 387.321 246.800 393.661 L 246.800 400.000 256.000 400.000 L 265.200 400.000 265.200 393.837 L 265.200 387.675 267.944 385.137 C 271.030 382.284,275.371 379.657,280.168 377.742 C 283.274 376.501,284.518 376.124,293.400 373.736 C 302.939 371.172,311.116 365.150,310.584 361.083 C 308.962 348.707,302.110 346.279,275.400 348.616 M290.332 355.463 C 293.815 356.851,295.774 358.079,298.100 360.330 C 300.454 362.610,300.470 362.451,297.700 364.331 C 292.722 367.709,289.399 369.055,283.200 370.206 C 275.473 371.641,268.762 374.001,264.342 376.837 L 262.458 378.046 260.866 377.234 C 256.731 375.124,251.571 370.113,248.438 365.165 L 246.814 362.600 247.707 361.908 C 253.243 357.622,260.350 355.697,273.000 355.060 C 288.322 354.288,287.324 354.265,290.332 355.463 M134.680 366.457 C 128.416 371.978,124.802 381.872,124.801 393.500 L 124.800 400.000 127.600 400.000 L 130.400 400.000 130.407 393.900 C 130.415 386.267,131.906 382.154,137.220 375.103 C 137.343 374.940,139.170 375.244,141.280 375.780 C 144.993 376.721,154.885 378.450,159.800 379.017 C 163.958 379.495,170.820 382.489,176.500 386.302 L 178.000 387.309 178.000 393.654 L 178.000 400.000 184.600 400.000 L 191.200 400.000 191.200 393.436 L 191.200 386.872 188.292 384.269 C 181.460 378.154,175.805 375.754,158.800 371.749 C 152.562 370.280,145.455 367.946,141.316 366.006 C 137.087 364.024,137.469 363.998,134.680 366.457 M386.239 374.299 C 383.864 379.142,379.133 383.868,374.275 386.251 L 372.000 387.367 372.000 393.683 L 372.000 400.000 386.000 400.000 L 400.000 400.000 400.000 386.000 L 400.000 372.000 393.683 372.000 L 387.367 372.000 386.239 374.299 " stroke="none" fill="#646464" fill-rule="evenodd"></path><path id="path1" d="M152.905 7.500 C 153.254 21.207,156.291 25.144,165.615 23.974 C 173.394 22.999,174.400 20.954,174.400 6.110 L 174.400 0.000 163.557 0.000 L 152.714 0.000 152.905 7.500 M228.114 7.500 C 228.239 12.788,228.537 16.298,229.125 19.400 C 229.584 21.820,230.259 26.770,230.625 30.400 C 231.433 38.412,231.522 38.671,234.381 41.319 L 236.663 43.431 244.632 44.337 C 249.014 44.835,254.850 45.664,257.600 46.179 L 262.600 47.116 265.600 45.280 C 268.469 43.525,274.000 38.522,274.000 37.683 C 274.000 36.707,263.224 28.130,260.800 27.176 C 255.965 25.275,251.024 20.737,248.675 16.040 L 247.200 13.093 247.200 6.546 L 247.200 0.000 237.569 0.000 L 227.938 0.000 228.114 7.500 M184.000 26.036 C 178.024 26.805,176.821 28.041,176.043 34.206 C 175.657 37.263,175.677 37.429,176.520 38.083 C 177.617 38.936,186.860 43.600,187.451 43.600 C 188.254 43.600,191.413 40.913,192.565 39.250 L 193.708 37.602 192.810 35.101 C 191.320 30.952,188.024 25.542,187.053 25.651 C 186.804 25.679,185.430 25.852,184.000 26.036 M134.200 30.410 C 132.440 31.768,129.852 33.886,128.450 35.117 L 125.900 37.356 126.944 38.188 C 127.519 38.646,130.141 40.085,132.771 41.386 L 137.554 43.751 142.477 41.331 C 145.185 40.000,147.828 38.560,148.350 38.131 L 149.301 37.351 148.640 35.077 C 146.723 28.484,139.658 26.201,134.200 30.410 M84.547 32.608 C 81.050 34.204,76.000 37.123,76.000 37.547 C 76.000 37.927,82.585 41.572,85.506 42.811 L 87.611 43.703 91.306 41.850 C 93.338 40.831,95.968 39.441,97.152 38.761 L 99.304 37.524 98.152 36.740 C 96.923 35.904,89.666 32.154,88.249 31.623 C 87.644 31.397,86.579 31.680,84.547 32.608 M210.346 57.751 C 209.373 58.494,208.057 59.852,207.421 60.769 L 206.266 62.437 206.931 64.547 C 207.754 67.158,209.676 70.115,211.305 71.275 L 212.536 72.151 214.071 70.376 C 219.080 64.583,219.327 61.986,215.219 58.293 C 212.709 56.036,212.607 56.025,210.346 57.751 M333.200 58.836 C 327.041 62.754,327.046 62.773,335.631 67.737 L 337.462 68.795 340.929 66.728 C 342.836 65.591,344.982 64.170,345.698 63.569 L 347.000 62.477 346.112 61.525 C 344.994 60.328,339.334 56.912,338.000 56.631 C 337.247 56.472,336.061 57.016,333.200 58.836 M183.656 83.534 C 181.700 84.780,179.592 86.183,178.972 86.652 L 177.845 87.503 180.042 89.931 C 181.251 91.266,183.432 93.452,184.890 94.788 L 187.541 97.217 191.180 93.754 C 193.182 91.849,195.366 89.601,196.033 88.758 L 197.247 87.226 195.523 85.503 C 193.771 83.752,191.400 82.422,188.706 81.680 C 187.281 81.287,187.047 81.373,183.656 83.534 M35.314 83.167 C 34.387 83.597,32.330 84.707,30.743 85.633 L 27.857 87.319 28.908 88.222 C 29.486 88.719,31.630 90.160,33.673 91.424 L 37.388 93.721 39.794 93.237 C 45.236 92.141,50.463 88.427,48.558 87.009 C 44.941 84.316,37.496 82.156,35.314 83.167 M60.757 101.975 C 57.469 104.685,55.696 111.428,57.384 114.800 C 58.542 117.113,61.994 121.973,62.491 121.990 C 63.051 122.009,66.085 117.811,67.407 115.186 L 68.742 112.536 67.838 109.968 C 66.444 106.010,63.404 100.800,62.489 100.800 C 62.320 100.800,61.541 101.329,60.757 101.975 M282.391 108.727 C 276.928 111.496,276.000 112.059,276.000 112.606 C 276.000 113.365,281.763 118.638,284.478 120.363 L 287.155 122.065 293.078 121.052 C 299.703 119.919,308.613 118.800,311.006 118.800 C 312.581 118.800,320.905 114.986,323.200 113.213 C 324.476 112.227,324.345 112.120,317.792 108.821 L 312.983 106.400 299.982 106.400 L 286.981 106.400 282.391 108.727 M34.800 153.441 C 25.588 155.262,14.744 156.400,6.616 156.400 L 0.000 156.400 0.000 164.200 L 0.000 172.000 18.865 172.000 L 37.730 172.000 39.565 170.935 C 43.345 168.740,49.200 163.553,49.200 162.399 C 49.200 161.955,43.911 156.884,42.369 155.849 C 38.262 153.092,37.612 152.886,34.800 153.441 M134.764 154.926 C 129.083 159.395,126.000 162.073,126.000 162.536 C 126.000 163.346,131.632 168.555,134.428 170.331 L 137.056 172.000 149.846 172.000 L 162.637 172.000 165.818 169.561 C 169.819 166.494,174.000 162.835,174.000 162.402 C 174.000 162.058,169.192 157.985,164.915 154.705 L 162.429 152.800 149.915 152.826 L 137.400 152.852 134.764 154.926 M260.756 154.315 C 259.790 155.148,257.253 157.222,255.119 158.923 C 252.984 160.624,251.144 162.167,251.030 162.351 C 250.824 162.684,258.399 166.951,261.349 168.163 C 263.896 169.210,286.212 169.097,289.339 168.021 C 292.024 167.097,296.540 164.746,298.137 163.440 L 299.275 162.510 296.136 159.755 C 294.410 158.240,291.716 156.055,290.150 154.900 L 287.302 152.800 274.907 152.800 L 262.513 152.800 260.756 154.315 M332.198 158.822 C 325.785 162.060,325.658 162.159,326.595 163.194 C 327.590 164.294,331.819 166.617,335.018 167.821 L 337.655 168.814 340.266 166.307 C 344.185 162.546,344.168 162.790,340.751 159.350 C 337.240 155.816,338.054 155.866,332.198 158.822 M358.853 202.030 C 350.235 204.993,339.451 206.655,333.096 206.002 C 327.912 205.468,319.490 204.274,315.343 203.484 L 312.485 202.939 309.395 205.253 C 307.696 206.526,305.055 208.679,303.526 210.038 L 300.746 212.509 301.873 213.283 C 302.493 213.710,305.140 215.125,307.755 216.429 L 312.509 218.800 325.592 218.800 C 340.099 218.800,340.347 218.836,345.698 221.682 C 350.483 224.228,354.097 229.159,355.855 235.543 C 356.579 238.173,358.670 240.999,361.254 242.839 L 362.439 243.682 364.519 242.800 C 371.077 240.020,373.854 238.054,375.755 234.843 C 377.897 231.226,380.916 228.143,384.435 225.978 L 387.000 224.400 393.500 224.400 L 400.000 224.400 400.000 213.600 L 400.000 202.800 392.900 202.797 C 386.260 202.795,374.607 202.078,366.800 201.192 C 362.495 200.704,362.809 200.671,358.853 202.030 M34.319 204.774 C 31.024 206.886,28.055 209.437,26.731 211.297 C 25.699 212.747,26.152 213.345,29.853 215.415 C 35.809 218.745,36.134 218.800,49.992 218.800 L 62.365 218.800 64.355 217.626 C 67.904 215.534,72.000 212.736,72.000 212.404 C 72.000 212.226,69.906 209.993,67.347 207.440 L 62.693 202.800 50.047 202.800 L 37.400 202.800 34.319 204.774 M247.000 206.866 C 236.885 207.243,235.152 207.608,229.130 210.637 C 225.363 212.532,225.268 212.234,231.655 218.572 L 237.400 224.273 244.200 223.584 C 247.940 223.205,253.237 222.762,255.972 222.599 C 262.861 222.189,264.346 221.435,272.000 214.468 C 274.639 212.066,274.881 212.390,267.792 208.821 L 262.983 206.400 259.592 206.462 C 257.726 206.496,252.060 206.678,247.000 206.866 M134.764 254.931 C 129.605 258.981,126.000 262.057,126.000 262.408 C 126.000 263.490,136.920 268.800,139.145 268.800 C 141.346 268.800,152.688 270.255,158.000 271.220 L 162.600 272.055 163.945 270.527 C 165.658 268.582,166.858 266.700,167.922 264.289 L 168.765 262.378 166.128 259.583 C 163.094 256.367,163.870 256.639,154.800 255.598 C 148.878 254.918,140.157 253.579,138.000 253.017 C 137.670 252.931,136.214 253.792,134.764 254.931 M260.777 254.758 C 259.905 255.771,258.525 257.888,257.711 259.461 L 256.230 262.323 256.913 264.489 C 258.777 270.405,260.794 271.921,267.493 272.441 C 270.302 272.659,276.290 273.191,280.800 273.622 C 290.082 274.511,309.750 274.710,315.609 273.975 C 322.081 273.164,323.181 272.064,323.988 265.600 C 324.439 261.984,324.733 262.305,317.792 258.817 L 312.983 256.400 299.792 256.396 C 284.916 256.392,277.239 255.741,265.281 253.471 L 262.363 252.916 260.777 254.758 M57.355 258.746 C 54.740 260.037,52.181 261.436,51.669 261.855 L 50.738 262.617 52.411 264.517 C 54.284 266.645,57.611 269.294,60.567 271.012 L 62.533 272.154 64.070 270.377 C 64.915 269.400,66.330 267.211,67.216 265.514 L 68.826 262.429 65.801 259.414 C 62.192 255.817,63.139 255.892,57.355 258.746 M334.000 276.036 C 328.024 276.805,326.821 278.041,326.043 284.206 C 325.558 288.049,325.227 287.675,332.208 291.183 L 337.017 293.600 349.868 293.600 L 362.720 293.600 364.806 291.317 C 368.097 287.717,368.098 287.698,365.408 284.410 C 364.140 282.859,362.719 281.519,362.251 281.431 C 361.783 281.344,358.880 280.888,355.800 280.418 C 349.954 279.527,342.640 277.756,339.189 276.396 C 338.079 275.958,337.042 275.623,336.885 275.651 C 336.728 275.679,335.430 275.852,334.000 276.036 M225.800 281.664 C 212.497 282.099,206.652 283.376,201.523 286.969 C 200.338 287.799,210.394 297.983,215.149 300.767 C 218.759 302.881,222.067 306.188,224.229 309.845 C 226.023 312.881,228.287 314.536,234.548 317.389 L 237.612 318.785 240.549 315.838 L 243.486 312.891 243.969 308.346 C 244.600 302.394,245.889 293.387,246.584 290.072 C 247.104 287.591,247.090 287.369,246.342 286.318 C 244.770 284.111,238.808 281.048,236.513 281.268 C 236.121 281.306,231.300 281.484,225.800 281.664 M384.800 328.425 C 382.452 329.001,372.912 330.367,367.200 330.946 C 361.697 331.503,356.860 333.327,351.867 336.727 L 350.735 337.499 351.913 338.338 C 355.930 341.198,362.114 343.555,366.800 344.012 C 372.137 344.533,380.406 345.702,385.000 346.585 C 386.982 346.966,390.445 347.200,394.100 347.200 L 400.000 347.200 400.000 337.600 L 400.000 328.000 393.100 328.041 C 389.305 328.063,385.570 328.236,384.800 328.425 M34.576 332.360 C 30.069 334.118,26.000 336.687,26.000 337.775 C 26.000 339.499,32.424 346.433,35.646 348.186 L 37.591 349.245 39.495 347.935 C 41.950 346.247,46.255 341.938,47.951 339.472 C 49.543 337.157,49.769 337.428,43.550 334.214 C 37.389 331.031,37.779 331.111,34.576 332.360 M82.546 333.636 C 79.936 334.946,77.350 336.373,76.800 336.809 L 75.800 337.600 76.800 338.401 C 78.461 339.732,82.449 341.850,85.083 342.800 L 87.567 343.695 89.883 342.399 C 92.225 341.088,97.200 337.692,97.200 337.403 C 97.200 337.060,92.493 333.659,90.886 332.842 C 87.423 331.079,87.692 331.054,82.546 333.636 M273.200 356.818 C 268.910 357.000,264.500 357.218,263.400 357.304 C 261.440 357.456,254.784 360.028,252.098 361.671 L 250.795 362.468 251.498 363.681 C 252.622 365.621,257.152 370.337,259.863 372.389 L 262.359 374.278 264.679 373.173 C 269.396 370.928,274.580 369.556,282.684 368.407 C 287.599 367.710,288.248 367.512,291.985 365.569 C 298.018 362.431,298.017 362.263,291.939 358.587 L 288.654 356.600 284.827 356.544 C 282.722 356.513,277.490 356.636,273.200 356.818 M135.592 380.814 C 132.439 386.212,132.419 386.294,132.409 393.500 L 132.400 400.000 153.400 400.000 L 174.400 400.000 174.400 393.791 L 174.400 387.582 172.500 386.361 C 168.785 383.973,162.565 381.200,160.923 381.200 C 158.689 381.200,147.398 379.761,142.200 378.814 C 139.780 378.373,137.673 378.009,137.518 378.006 C 137.362 378.003,136.496 379.266,135.592 380.814 " stroke="none" fill="#949494" fill-rule="evenodd"></path><path id="path2" d="M16.400 6.389 L 16.400 12.779 14.589 14.589 L 12.779 16.400 6.389 16.400 L 0.000 16.400 0.000 22.600 L 0.000 28.800 6.300 28.809 C 15.715 28.822,17.428 29.775,21.003 36.989 C 25.530 46.125,29.108 48.119,45.800 50.808 C 57.053 52.622,60.293 53.280,64.512 54.612 C 68.337 55.820,74.544 56.958,81.941 57.807 L 87.545 58.451 92.272 57.191 C 99.783 55.190,107.625 52.338,110.851 50.435 L 112.276 49.594 115.638 51.156 C 126.070 56.002,136.035 58.635,141.531 57.998 C 148.832 57.152,155.472 56.011,158.934 55.008 L 162.400 54.004 165.700 54.959 C 169.298 56.001,176.988 57.311,183.600 58.008 L 187.800 58.450 189.700 60.310 C 192.016 62.577,192.021 62.290,189.621 64.703 C 187.700 66.634,187.555 66.701,184.721 66.968 C 169.185 68.435,159.938 73.355,155.351 82.595 C 153.038 87.254,153.030 87.813,155.213 92.250 C 156.612 95.095,157.688 96.554,160.632 99.600 C 168.512 107.753,171.451 110.673,172.726 111.618 L 174.053 112.600 173.608 115.400 C 172.338 123.387,170.680 123.992,150.034 123.997 L 137.067 124.000 134.234 125.774 C 130.662 128.011,127.762 130.973,125.446 134.751 C 124.123 136.910,123.069 138.084,121.519 139.125 C 120.353 139.908,117.798 141.810,115.840 143.352 L 112.280 146.156 109.672 144.778 C 105.136 142.382,102.734 140.053,99.923 135.326 C 97.107 130.591,94.687 128.131,90.190 125.434 C 86.961 123.497,85.474 121.091,84.084 115.554 L 83.311 112.479 84.556 109.537 C 85.240 107.919,86.150 106.017,86.579 105.310 C 87.474 103.833,86.320 104.064,100.200 102.577 C 111.909 101.322,112.302 101.238,114.396 99.555 C 117.260 97.253,121.576 90.072,121.595 87.575 C 121.617 84.761,114.697 78.880,109.875 77.615 C 108.074 77.142,102.324 75.506,97.097 73.978 L 87.595 71.200 75.097 71.187 C 68.224 71.180,61.340 71.008,59.800 70.805 C 45.031 68.861,23.916 69.774,15.837 72.704 C 13.326 73.615,12.253 73.751,6.500 73.885 L 0.000 74.037 0.000 85.419 L 0.000 96.800 6.176 96.800 L 12.351 96.800 15.476 99.047 C 20.341 102.546,28.108 105.944,35.923 107.992 C 37.620 108.436,40.461 110.619,41.242 112.078 C 41.715 112.963,40.524 117.720,38.948 121.240 C 38.109 123.112,37.295 124.014,33.998 126.723 C 31.827 128.506,28.670 131.638,26.983 133.683 C 23.448 137.964,23.659 137.825,17.435 139.971 L 12.711 141.600 6.356 141.600 L 0.000 141.600 0.000 144.600 L 0.000 147.600 6.500 147.599 C 14.965 147.598,24.679 145.229,34.099 140.871 L 37.599 139.252 42.699 139.638 C 52.614 140.389,59.157 142.423,61.490 145.482 C 62.191 146.401,63.491 147.323,65.112 148.050 C 70.225 150.344,74.814 154.902,77.055 159.911 C 78.283 162.656,78.351 162.461,75.725 163.749 C 70.817 166.156,66.224 170.773,63.654 175.883 C 59.322 184.499,54.480 185.600,20.915 185.600 L 0.000 185.600 0.000 191.200 L 0.000 196.800 6.212 196.800 L 12.424 196.800 13.678 195.373 C 17.753 190.732,26.846 189.205,50.429 189.202 L 62.658 189.200 65.629 191.246 C 73.796 196.870,81.724 205.106,85.171 211.545 C 86.308 213.670,78.227 220.219,68.915 224.721 L 64.200 227.000 43.000 227.246 C 31.340 227.382,16.895 227.636,10.900 227.811 L 0.000 228.129 0.000 237.464 L 0.000 246.800 6.181 246.800 L 12.362 246.800 13.547 248.523 C 17.699 254.558,35.008 260.920,38.514 257.699 C 42.462 254.073,52.910 249.499,60.600 248.031 C 66.217 246.959,77.209 258.197,77.192 264.996 C 77.150 282.484,72.180 287.044,55.141 285.229 C 43.535 283.993,39.466 282.020,36.709 276.292 C 33.107 268.809,25.099 265.776,7.700 265.305 L -0.000 265.096 -0.000 269.948 L 0.000 274.800 6.610 274.800 L 13.220 274.800 15.939 276.169 C 23.418 279.936,28.091 285.235,28.556 290.476 C 29.520 301.341,28.282 300.947,62.200 301.200 C 76.940 301.310,89.360 301.562,89.800 301.759 C 93.919 303.608,97.564 311.394,95.173 313.236 C 92.807 315.059,88.304 316.496,83.200 317.059 C 75.917 317.862,68.777 319.100,65.493 320.128 L 62.621 321.028 59.480 320.118 C 55.640 319.006,48.558 317.783,42.400 317.169 C 32.098 316.141,26.608 313.826,25.588 310.080 C 24.066 304.489,20.492 303.200,6.510 303.200 L 0.000 303.200 0.000 312.600 L 0.000 322.000 3.500 321.992 C 19.460 321.955,39.102 322.907,42.800 323.898 C 50.135 325.864,57.135 329.118,61.168 332.437 L 62.537 333.563 63.849 332.411 C 69.907 327.092,81.559 323.104,93.056 322.416 C 105.147 321.692,107.562 320.417,108.277 314.383 C 108.534 312.211,111.324 308.800,112.844 308.800 C 113.921 308.800,126.935 312.000,127.305 312.356 C 127.472 312.517,126.572 313.074,125.305 313.594 C 117.325 316.867,112.308 324.124,111.002 334.278 C 110.226 340.311,105.893 344.875,96.987 349.037 C 90.405 352.112,88.808 352.393,77.608 352.447 C 72.214 352.472,66.642 352.607,65.226 352.747 L 62.651 353.000 61.492 355.000 C 56.414 363.758,49.423 365.319,11.100 366.255 L 0.000 366.527 0.000 372.663 L 0.000 378.800 6.700 378.786 C 11.145 378.776,14.208 378.576,15.800 378.190 C 29.085 374.974,41.193 374.229,57.502 375.626 L 62.804 376.080 65.719 374.264 C 69.295 372.035,72.510 368.717,74.737 364.960 C 75.755 363.242,76.851 361.918,77.510 361.611 C 80.867 360.046,86.061 358.679,92.072 357.780 C 102.363 356.240,106.578 354.964,111.235 351.977 C 112.244 351.330,113.504 350.796,114.035 350.791 C 118.357 350.752,120.856 347.267,121.431 340.476 C 122.085 332.761,132.761 322.085,140.476 321.431 C 148.437 320.757,149.986 319.270,151.212 311.121 C 152.438 302.969,155.286 300.637,163.200 301.306 C 165.879 301.533,184.523 303.571,186.207 303.822 C 188.210 304.120,195.964 312.287,197.391 315.600 C 201.863 325.988,211.589 330.722,232.896 332.884 C 238.033 333.405,239.101 333.210,243.800 330.891 C 251.591 327.047,255.063 322.362,259.135 310.200 C 260.240 306.900,261.438 303.502,261.798 302.649 L 262.453 301.099 264.327 301.359 C 277.926 303.250,284.279 303.737,298.600 303.986 C 312.857 304.234,313.540 304.282,317.200 305.278 C 325.459 307.527,331.519 308.110,349.600 308.395 C 367.548 308.678,369.630 308.935,372.545 311.228 C 374.000 312.372,373.901 312.589,371.500 313.529 C 365.651 315.817,363.158 316.476,358.213 317.041 C 350.939 317.872,344.246 319.041,340.329 320.163 C 338.498 320.688,335.920 321.227,334.600 321.360 C 311.696 323.676,312.260 323.559,307.380 327.014 C 304.308 329.188,302.541 331.149,300.384 334.779 C 298.369 338.173,297.817 338.585,293.252 340.102 C 287.425 342.040,266.921 344.554,253.531 344.973 C 246.278 345.200,238.060 345.910,222.800 347.629 C 212.873 348.747,212.445 348.845,209.287 350.721 C 205.482 352.981,201.778 357.023,199.863 361.004 C 199.018 362.762,197.952 364.975,197.495 365.923 C 195.686 369.675,189.526 371.727,184.687 370.190 C 181.341 369.127,174.346 367.898,166.800 367.046 C 159.061 366.172,150.825 363.147,150.806 361.171 C 150.762 356.644,147.881 354.464,140.760 353.571 C 131.453 352.404,125.648 354.836,124.249 360.489 C 123.907 361.870,123.188 364.277,122.651 365.837 C 120.792 371.240,119.600 382.033,119.600 393.458 L 119.600 400.000 122.200 400.000 L 124.800 400.000 124.801 393.500 C 124.802 381.872,128.416 371.978,134.680 366.457 C 137.469 363.998,137.087 364.024,141.316 366.006 C 145.455 367.946,152.562 370.280,158.800 371.749 C 175.805 375.754,181.460 378.154,188.292 384.269 L 191.200 386.872 191.200 393.436 L 191.200 400.000 197.569 400.000 L 203.939 400.000 204.083 392.300 C 204.282 381.712,205.603 378.552,210.605 376.702 L 212.491 376.005 214.145 377.269 C 216.716 379.234,220.295 382.774,222.236 385.270 L 224.000 387.539 224.000 393.770 L 224.000 400.000 235.400 400.000 L 246.800 400.000 246.800 393.661 L 246.800 387.321 245.118 386.563 C 242.253 385.271,239.587 382.244,237.222 377.600 C 233.689 370.664,229.829 366.540,224.218 363.707 L 221.835 362.505 224.018 361.872 C 225.218 361.525,228.720 360.657,231.800 359.945 C 236.046 358.962,237.751 358.378,238.851 357.529 C 245.088 352.719,254.919 350.371,276.200 348.611 C 302.716 346.418,308.958 348.682,310.584 361.083 C 311.116 365.150,302.939 371.172,293.400 373.736 C 284.518 376.124,283.274 376.501,280.168 377.742 C 275.371 379.657,271.030 382.284,267.944 385.137 L 265.200 387.675 265.200 393.837 L 265.200 400.000 270.000 400.000 L 274.800 400.000 274.800 393.631 L 274.800 387.263 277.300 385.609 C 283.350 381.607,286.402 380.505,292.800 380.011 C 311.019 378.603,319.046 374.731,325.005 364.475 C 327.342 360.453,330.614 357.306,334.491 355.354 L 337.307 353.936 340.953 354.979 C 344.666 356.042,351.406 357.194,358.600 357.995 C 362.662 358.448,365.329 359.160,370.901 361.279 L 374.002 362.459 372.251 364.733 C 368.965 369.004,364.955 372.425,359.470 375.636 C 355.861 377.749,352.992 380.555,350.802 384.114 L 348.800 387.367 348.800 393.683 L 348.800 400.000 360.400 400.000 L 372.000 400.000 372.000 393.683 L 372.000 387.367 374.299 386.239 C 379.142 383.864,383.868 379.133,386.251 374.275 L 387.367 372.000 393.683 372.000 L 400.000 372.000 400.000 366.400 L 400.000 360.800 393.900 360.800 L 387.800 360.800 383.400 358.845 C 378.540 356.686,370.358 354.100,364.200 352.777 C 352.197 350.196,343.237 346.532,338.400 342.227 C 337.626 341.538,336.539 341.234,333.586 340.880 C 327.793 340.187,321.625 338.242,322.487 337.380 C 322.615 337.252,326.023 336.338,330.060 335.349 C 335.873 333.925,337.696 333.315,338.824 332.418 C 343.682 328.551,357.260 322.806,361.557 322.799 C 364.192 322.795,378.721 318.347,383.956 315.942 L 387.312 314.400 393.656 314.400 L 400.000 314.400 400.000 308.800 L 400.000 303.200 393.460 303.200 L 386.920 303.200 385.269 302.004 C 382.378 299.910,381.411 297.184,380.387 288.250 C 378.863 274.950,375.153 269.885,364.988 267.222 C 361.946 266.425,358.283 264.940,355.477 263.365 L 353.954 262.510 355.171 261.486 C 356.782 260.130,360.387 258.800,363.600 258.377 C 376.100 256.731,379.494 256.183,382.800 255.275 C 386.042 254.384,387.583 254.211,393.300 254.097 L 400.000 253.964 400.000 247.582 L 400.000 241.200 393.955 241.200 L 387.910 241.200 385.502 243.010 C 380.560 246.725,374.573 249.401,366.847 251.350 C 356.529 253.951,348.000 248.763,348.000 239.884 C 348.000 237.129,344.566 232.496,339.955 229.030 L 337.521 227.200 324.218 227.200 L 310.914 227.200 306.751 226.007 C 299.141 223.825,292.820 220.846,288.821 217.555 L 287.442 216.420 284.421 219.388 C 280.302 223.433,274.794 227.801,268.703 231.851 C 263.014 235.633,262.947 235.661,257.500 236.644 C 252.218 237.596,252.872 238.333,259.600 239.011 C 261.406 239.193,263.544 239.858,266.600 241.190 C 270.986 243.101,279.353 245.803,284.525 246.980 C 286.677 247.470,289.920 247.600,299.966 247.600 C 314.173 247.600,316.252 247.893,324.581 251.067 C 330.786 253.432,338.082 258.158,340.853 261.606 C 343.417 264.796,350.715 268.746,359.657 271.781 C 366.562 274.125,370.643 277.644,373.643 283.841 L 375.287 287.239 374.640 289.817 C 373.132 295.818,370.967 298.744,366.400 300.946 L 363.800 302.200 350.660 302.320 C 332.542 302.487,324.272 300.358,314.498 293.010 L 312.090 291.200 299.145 291.193 L 286.200 291.185 279.000 289.362 C 275.040 288.359,269.730 287.119,267.200 286.607 L 262.600 285.676 261.720 286.488 C 259.716 288.340,256.219 297.308,253.605 307.296 C 251.360 315.878,248.023 320.655,241.004 325.336 C 237.654 327.570,237.392 327.584,231.332 325.834 C 218.805 322.216,216.898 320.902,200.479 304.575 L 187.157 291.328 181.479 290.011 C 178.355 289.287,174.223 288.171,172.296 287.532 C 170.369 286.893,167.259 286.182,165.384 285.953 C 162.846 285.643,161.116 285.134,158.616 283.962 C 154.539 282.052,147.405 279.712,141.200 278.251 C 128.002 275.143,122.737 273.341,117.596 270.171 C 114.286 268.130,108.800 263.415,108.800 262.611 C 108.800 260.485,126.429 245.904,136.032 240.087 L 137.463 239.219 140.407 240.630 C 145.696 243.165,156.246 246.442,164.199 248.022 C 173.604 249.889,176.783 254.638,177.574 268.000 C 178.272 279.801,179.381 282.034,185.142 283.229 C 187.126 283.641,187.391 283.608,188.352 282.824 C 193.966 278.245,204.482 275.487,222.000 273.999 C 237.597 272.674,238.005 272.617,240.200 271.494 C 245.888 268.582,247.819 264.798,247.457 257.273 C 246.875 245.163,245.538 242.579,239.419 241.741 C 237.506 241.478,237.291 241.290,224.888 228.987 L 212.300 216.499 208.084 215.847 C 203.415 215.125,198.994 213.923,197.804 213.052 C 196.890 212.384,199.020 211.651,207.389 209.754 C 211.393 208.846,212.597 208.387,214.738 206.951 C 221.132 202.663,229.628 200.469,244.800 199.189 C 249.750 198.771,255.836 198.249,258.325 198.028 C 266.470 197.306,278.644 201.481,286.508 207.693 L 287.615 208.567 290.908 205.359 C 296.108 200.292,301.663 196.004,308.894 191.473 L 312.388 189.284 316.694 191.197 C 321.057 193.134,329.381 195.823,334.729 197.021 L 337.658 197.677 341.929 196.202 C 349.606 193.551,358.113 188.826,359.096 186.669 C 359.343 186.126,360.162 185.212,360.915 184.638 L 362.284 183.593 369.556 185.411 C 382.944 188.757,385.717 189.200,393.255 189.200 L 400.000 189.200 400.000 183.800 L 400.000 178.400 393.964 178.400 C 387.156 178.400,385.992 178.158,370.601 173.543 C 360.614 170.548,361.033 170.934,358.151 162.065 C 354.768 151.655,349.705 146.163,340.187 142.581 C 336.663 141.254,324.558 142.476,315.639 145.059 L 312.277 146.032 311.239 145.053 C 310.209 144.082,305.969 140.872,302.770 138.641 C 300.798 137.266,300.595 137.432,307.001 135.198 C 310.669 133.919,312.978 133.391,316.800 132.957 C 324.323 132.103,331.306 130.878,334.733 129.811 C 340.177 128.117,345.571 127.054,358.000 125.224 C 370.853 123.331,377.131 118.922,379.389 110.202 C 381.402 102.426,383.293 101.200,393.279 101.200 L 400.000 101.200 400.000 89.600 L 400.000 78.000 393.683 78.000 L 387.367 78.000 386.251 75.725 C 383.864 70.859,379.230 66.228,374.227 63.709 L 371.854 62.514 372.870 61.849 C 375.655 60.023,381.352 59.091,390.900 58.898 L 400.000 58.714 400.000 52.357 L 400.000 46.000 393.590 46.000 L 387.180 46.000 384.328 44.564 C 382.506 43.646,380.476 42.149,378.706 40.417 L 375.935 37.706 376.199 35.753 C 377.328 27.397,378.931 26.411,391.900 26.101 L 400.000 25.908 400.000 12.954 L 400.000 0.000 387.046 0.000 L 374.092 0.000 373.899 8.100 C 373.581 21.373,372.006 23.636,363.000 23.756 C 353.109 23.887,351.574 21.885,351.303 8.500 L 351.131 0.000 337.566 0.000 L 324.000 0.000 324.000 6.362 L 324.000 12.723 327.006 16.356 C 331.063 21.257,336.604 25.839,338.895 26.187 C 346.507 27.344,347.941 28.679,348.660 35.273 C 349.010 38.477,348.176 38.943,336.933 41.824 C 327.472 44.249,320.944 47.035,315.394 51.017 L 312.361 53.193 310.436 52.218 C 305.309 49.620,302.382 45.493,299.391 36.643 C 296.597 28.377,294.260 24.942,289.649 22.324 C 288.412 21.621,286.590 20.357,285.600 19.515 C 284.610 18.672,282.090 16.757,280.000 15.258 L 276.200 12.533 276.090 6.266 L 275.980 0.000 268.390 0.000 L 260.800 0.000 260.800 6.370 L 260.800 12.739 261.900 13.600 C 262.505 14.074,265.430 16.053,268.400 17.998 C 277.140 23.722,286.216 31.510,289.258 35.897 L 290.434 37.594 289.987 41.897 C 288.496 56.221,285.048 59.066,267.600 60.368 L 262.600 60.741 258.800 59.017 C 250.481 55.241,238.837 52.096,235.726 52.786 C 230.293 53.990,227.210 58.506,227.192 65.287 C 227.155 78.992,223.917 84.333,214.993 85.407 C 212.078 85.758,211.848 85.953,208.640 90.762 C 202.169 100.465,189.131 111.864,186.452 110.160 C 178.160 104.889,171.667 98.616,166.264 90.653 C 163.976 87.282,163.971 87.521,166.394 84.562 C 170.633 79.386,177.139 75.514,185.557 73.158 C 196.545 70.084,200.687 61.865,194.411 55.589 C 192.456 53.635,191.817 53.389,183.400 51.366 C 175.676 49.509,168.380 46.192,163.505 42.321 L 162.410 41.451 161.505 42.283 C 157.196 46.243,143.457 51.967,138.000 52.076 C 134.676 52.142,122.027 46.729,115.495 42.445 L 112.389 40.409 110.495 41.750 C 105.940 44.973,98.221 48.715,90.849 51.273 L 87.499 52.436 83.288 51.381 C 75.529 49.439,69.488 46.754,64.553 43.057 L 62.200 41.295 49.800 40.797 L 37.400 40.299 35.720 39.144 C 33.371 37.529,33.364 37.457,35.400 35.421 L 37.221 33.600 49.949 33.600 C 62.289 33.600,62.699 33.575,63.421 32.777 C 66.573 29.294,82.296 22.800,87.575 22.800 C 92.701 22.800,106.122 28.284,111.179 32.445 L 112.558 33.580 115.579 30.612 C 119.846 26.422,125.326 22.107,131.600 17.998 C 134.570 16.053,137.495 14.074,138.100 13.600 L 139.200 12.739 139.200 6.370 L 139.200 0.000 131.610 -0.000 L 124.020 -0.000 123.910 6.266 L 123.800 12.533 120.000 15.258 C 117.910 16.757,115.390 18.668,114.400 19.505 L 112.600 21.027 109.443 20.116 C 104.109 18.577,92.414 16.800,87.615 16.800 C 82.478 16.800,69.960 18.711,65.256 20.214 C 62.289 21.161,61.839 21.190,49.764 21.195 L 37.328 21.200 34.858 19.966 C 30.012 17.544,28.821 14.852,28.809 6.300 L 28.800 0.000 22.600 0.000 L 16.400 0.000 16.400 6.389 M203.039 7.300 C 201.994 39.253,202.110 40.931,205.589 44.411 C 211.047 49.868,219.413 47.679,221.957 40.128 L 222.772 37.708 221.579 32.954 C 219.994 26.644,217.834 20.163,215.942 16.044 L 214.400 12.688 214.400 6.344 L 214.400 0.000 208.839 -0.000 L 203.278 -0.000 203.039 7.300 M213.468 28.300 C 216.932 36.802,216.975 38.051,213.892 40.537 L 212.383 41.753 210.392 39.792 C 209.296 38.713,208.400 37.608,208.400 37.336 C 208.400 35.792,211.832 26.400,212.396 26.400 C 212.560 26.400,213.042 27.255,213.468 28.300 M349.000 48.649 C 356.976 49.945,359.475 52.628,360.585 61.092 C 361.221 65.944,345.173 77.200,337.619 77.200 C 331.216 77.200,314.400 66.605,314.400 62.571 C 314.400 61.173,322.681 54.679,328.224 51.730 C 336.348 47.409,338.974 47.019,349.000 48.649 M242.263 59.953 C 249.667 62.604,248.950 62.070,248.662 64.711 C 247.945 71.286,245.788 73.254,238.800 73.709 C 237.101 73.819,235.428 70.908,234.061 65.463 L 233.266 62.296 235.214 60.348 C 237.547 58.015,236.945 58.049,242.263 59.953 M41.200 75.398 C 49.682 76.884,58.040 79.880,61.258 82.588 L 62.461 83.600 74.931 83.608 L 87.400 83.617 95.200 85.546 L 103.000 87.475 100.200 88.315 C 98.660 88.777,95.009 89.704,92.087 90.374 C 80.894 92.941,78.786 95.883,77.598 110.600 C 76.254 127.250,75.843 129.282,73.284 131.943 C 68.973 136.426,57.030 136.736,52.328 132.487 C 49.549 129.977,48.663 127.002,47.980 117.897 C 47.286 108.651,44.570 105.003,36.000 101.809 C 28.919 99.170,21.464 94.635,16.700 90.067 C 13.901 87.384,13.905 87.559,16.582 84.558 C 22.049 78.430,33.719 74.088,41.200 75.398 M314.121 77.188 C 324.930 84.483,347.960 84.724,360.036 77.667 L 362.646 76.142 364.423 77.496 C 366.973 79.439,370.197 82.646,372.231 85.263 L 373.989 87.525 373.295 89.403 C 371.156 95.186,369.014 95.800,351.000 95.800 L 336.600 95.800 332.600 94.709 C 316.357 90.279,282.078 90.452,265.708 95.047 C 257.490 97.354,250.611 92.777,251.334 85.482 C 251.896 79.797,253.420 77.657,257.462 76.870 C 258.748 76.620,260.160 76.343,260.600 76.254 C 261.040 76.165,272.866 76.072,286.880 76.046 L 312.360 76.000 314.121 77.188 M316.822 98.644 C 324.573 100.599,330.555 103.271,335.502 106.990 L 337.910 108.800 350.504 108.800 L 363.098 108.800 364.749 110.591 C 366.748 112.760,366.765 112.402,364.589 113.965 C 362.564 115.419,364.482 115.203,346.415 116.011 C 337.740 116.400,337.395 116.447,336.415 117.376 C 334.579 119.116,329.492 121.981,325.411 123.574 C 321.483 125.106,318.057 126.071,308.800 128.251 C 302.474 129.741,295.415 132.070,291.272 134.034 L 287.800 135.680 283.400 135.440 C 275.399 135.005,269.405 133.674,265.761 131.524 C 263.280 130.060,262.647 128.686,260.604 120.340 L 258.680 112.479 259.513 111.420 C 263.402 106.475,272.650 101.418,282.600 98.793 L 287.000 97.633 299.841 97.616 C 312.385 97.600,312.777 97.624,316.822 98.644 M239.651 101.764 C 242.772 103.068,244.606 105.617,245.578 110.000 C 245.847 111.210,246.398 113.280,246.803 114.600 C 250.530 126.739,253.300 137.115,252.960 137.664 C 252.829 137.876,251.779 138.803,250.627 139.725 C 249.474 140.646,247.210 142.480,245.596 143.800 C 243.981 145.120,241.476 147.160,240.030 148.333 L 237.400 150.467 231.800 150.213 C 222.482 149.790,214.828 149.216,210.400 148.608 C 208.090 148.290,202.690 147.663,198.400 147.213 C 194.110 146.763,189.900 146.300,189.044 146.184 C 187.909 146.030,186.555 145.237,184.044 143.256 C 182.150 141.763,179.558 139.849,178.285 139.004 L 175.971 137.467 176.217 135.634 C 177.135 128.790,178.896 127.070,185.886 126.191 C 190.154 125.654,196.015 121.088,199.266 115.767 C 200.565 113.642,202.162 111.678,203.559 110.491 C 206.382 108.090,208.103 106.367,210.549 103.491 L 212.497 101.200 225.400 101.200 C 235.594 101.200,238.585 101.318,239.651 101.764 M166.182 141.475 C 172.773 145.620,179.808 151.103,185.600 156.611 C 187.758 158.663,187.891 158.723,192.600 159.771 C 197.840 160.937,202.963 162.370,202.729 162.605 C 202.567 162.767,194.664 164.781,190.218 165.793 C 187.609 166.387,187.248 166.611,184.418 169.391 C 180.238 173.497,174.766 177.823,168.400 182.057 L 163.000 185.648 146.000 185.487 C 119.244 185.233,115.665 184.194,111.033 175.332 C 108.557 170.594,104.050 166.158,99.100 163.588 C 98.055 163.045,97.200 162.488,97.200 162.350 C 97.200 161.458,104.524 159.459,109.726 158.931 C 112.083 158.692,112.327 158.561,114.883 156.163 C 120.833 150.582,126.917 145.863,133.783 141.504 L 137.400 139.209 149.982 139.204 L 162.564 139.200 166.182 141.475 M291.039 141.431 C 298.340 146.005,303.876 150.276,309.092 155.359 L 312.385 158.567 313.492 157.693 C 319.811 152.701,334.991 146.780,338.271 148.027 C 343.846 150.147,352.287 159.768,352.108 163.798 C 351.792 170.884,348.600 174.994,342.200 176.555 C 340.069 177.074,319.785 177.890,312.600 177.746 C 311.500 177.723,299.350 177.544,285.600 177.347 L 260.600 176.989 254.800 174.655 C 248.978 172.311,242.556 168.992,239.200 166.592 C 237.742 165.549,236.753 165.216,234.000 164.840 C 228.546 164.095,222.261 162.709,222.859 162.383 C 223.670 161.940,228.862 160.877,233.596 160.184 C 237.172 159.661,237.971 159.405,238.996 158.453 C 239.658 157.838,240.671 156.990,241.246 156.568 C 242.602 155.573,253.021 147.105,258.356 142.661 L 262.513 139.200 274.995 139.200 L 287.478 139.200 291.039 141.431 M239.064 175.390 C 240.466 176.371,249.700 179.925,254.907 181.487 L 259.800 182.954 274.200 183.202 C 289.561 183.467,289.722 183.486,295.600 185.820 C 298.971 187.159,299.080 187.352,297.210 188.656 C 294.019 190.880,289.787 194.086,288.746 195.067 L 287.693 196.061 284.983 195.224 C 275.665 192.346,264.613 191.357,255.325 192.570 C 244.043 194.043,236.217 194.738,228.000 194.999 C 220.261 195.245,201.604 196.995,189.151 198.645 C 186.229 199.032,180.974 195.089,177.567 189.954 C 175.968 187.543,175.933 187.614,180.214 184.580 C 182.312 183.093,184.787 181.216,185.714 180.409 L 187.400 178.942 197.600 177.852 C 203.210 177.252,209.780 176.501,212.200 176.183 C 222.124 174.878,237.678 174.419,239.064 175.390 M93.179 180.800 C 98.522 186.005,99.050 186.973,98.526 190.611 C 97.728 196.148,96.130 197.731,90.520 198.539 L 87.484 198.976 86.446 197.588 C 84.719 195.277,79.919 190.414,77.902 188.930 L 76.004 187.535 77.766 185.267 C 79.797 182.653,83.007 179.458,85.600 177.469 C 87.839 175.751,88.125 175.877,93.179 180.800 M342.647 185.233 C 346.929 187.258,346.778 187.601,340.369 190.414 L 337.525 191.662 332.554 189.969 C 324.831 187.338,324.856 187.114,333.163 184.573 C 337.837 183.143,338.297 183.175,342.647 185.233 M140.329 202.816 C 145.662 206.377,149.044 211.212,148.660 214.727 C 147.939 221.340,146.464 222.700,138.800 223.816 C 134.772 224.402,128.785 229.305,125.446 234.751 C 124.121 236.914,123.072 238.081,121.519 239.121 C 120.353 239.902,117.780 241.816,115.800 243.375 C 113.820 244.934,110.862 247.106,109.227 248.202 C 102.654 252.607,96.986 259.581,95.611 264.955 C 94.298 270.090,92.952 271.881,89.335 273.309 C 87.989 273.840,87.588 273.867,87.244 273.452 C 86.371 272.401,84.776 268.275,83.936 264.893 C 81.038 253.236,75.860 246.862,66.085 242.920 L 62.646 241.533 58.623 241.990 C 51.309 242.819,44.650 243.963,40.920 245.030 L 37.241 246.083 34.720 244.575 C 30.974 242.334,26.438 238.478,26.409 237.508 C 26.392 236.967,29.462 235.649,33.596 234.420 L 37.704 233.200 50.552 233.196 L 63.400 233.192 67.800 231.859 C 75.239 229.605,82.826 225.863,86.200 222.784 C 86.640 222.383,88.530 221.410,90.400 220.623 C 97.589 217.598,100.632 214.540,101.433 209.537 C 102.706 201.587,103.462 201.307,123.854 201.244 L 137.909 201.200 140.329 202.816 M165.437 227.956 C 169.990 231.180,174.481 236.735,173.497 237.927 C 172.709 238.881,169.210 240.273,165.702 241.027 L 162.476 241.720 158.260 240.249 C 155.941 239.440,153.380 238.500,152.568 238.161 L 151.092 237.544 151.340 235.272 C 151.942 229.751,153.475 227.646,157.462 226.870 C 158.748 226.620,160.160 226.343,160.600 226.254 C 162.320 225.907,162.765 226.064,165.437 227.956 M297.148 231.391 C 306.227 232.966,309.643 233.200,323.588 233.200 L 337.427 233.200 339.559 235.359 L 341.692 237.518 340.991 239.659 C 339.097 245.446,338.218 246.233,334.827 245.178 C 327.005 242.743,315.920 241.600,300.129 241.600 L 287.254 241.600 282.177 239.831 C 275.583 237.532,275.681 237.793,280.213 234.580 C 282.335 233.076,284.803 231.196,285.699 230.401 L 287.327 228.957 290.470 229.867 C 292.199 230.368,295.204 231.054,297.148 231.391 M217.056 233.700 C 219.500 236.175,222.276 239.370,223.226 240.800 C 225.558 244.311,231.203 249.894,234.663 252.112 C 237.890 254.181,238.728 255.207,240.404 259.145 C 241.909 262.682,241.953 262.358,239.648 264.675 L 237.696 266.638 230.948 267.524 C 220.498 268.896,213.450 269.515,202.800 269.997 C 197.410 270.241,191.830 270.596,190.400 270.786 C 187.254 271.205,186.508 270.595,184.697 266.123 C 182.186 259.924,184.170 253.857,190.356 248.817 C 194.862 245.146,196.049 243.922,200.151 238.715 C 203.544 234.408,205.527 232.593,209.039 230.578 C 212.269 228.726,212.068 228.648,217.056 233.700 M115.763 279.960 C 118.838 280.909,126.032 282.145,133.200 282.954 C 137.723 283.465,147.618 286.285,148.707 287.374 C 149.959 288.625,147.242 296.188,145.151 297.274 C 141.886 298.968,139.115 299.061,128.800 297.825 C 126.050 297.496,121.100 296.951,117.800 296.615 C 105.797 295.392,101.200 292.849,101.200 287.430 C 101.200 283.546,108.992 277.805,112.653 278.992 C 112.902 279.073,114.302 279.508,115.763 279.960 M159.257 324.597 C 154.713 326.015,152.508 332.283,153.571 340.760 C 154.511 348.256,155.601 349.634,161.633 350.955 C 164.623 351.610,172.701 344.452,175.415 338.742 L 176.108 337.283 174.574 334.742 C 172.462 331.244,169.173 327.889,165.783 325.776 C 162.741 323.880,161.990 323.745,159.257 324.597 " stroke="none" fill="#545454" fill-rule="evenodd"></path><path id="path3" d="M28.809 6.300 C 28.821 14.852,30.012 17.544,34.858 19.966 L 37.328 21.200 49.764 21.195 C 61.839 21.190,62.289 21.161,65.256 20.214 C 69.960 18.711,82.478 16.800,87.615 16.800 C 92.414 16.800,104.109 18.577,109.443 20.116 L 112.600 21.027 114.400 19.505 C 115.390 18.668,117.910 16.757,120.000 15.258 L 123.800 12.533 123.910 6.266 L 124.020 0.000 76.410 0.000 L 28.800 0.000 28.809 6.300 M276.090 6.266 L 276.200 12.533 280.000 15.258 C 282.090 16.757,284.610 18.672,285.600 19.515 C 286.590 20.357,288.412 21.621,289.649 22.324 C 294.260 24.942,296.597 28.377,299.391 36.643 C 302.382 45.493,305.309 49.620,310.436 52.218 L 312.361 53.193 315.394 51.017 C 320.944 47.035,327.472 44.249,336.933 41.824 C 348.176 38.943,349.010 38.477,348.660 35.273 C 347.941 28.679,346.507 27.344,338.895 26.187 C 336.604 25.839,331.063 21.257,327.006 16.356 L 324.000 12.723 324.000 6.362 L 324.000 0.000 299.990 -0.000 L 275.980 -0.000 276.090 6.266 M351.303 8.500 C 351.574 21.885,353.109 23.887,363.000 23.756 C 372.006 23.636,373.581 21.373,373.899 8.100 L 374.092 0.000 362.612 0.000 L 351.131 0.000 351.303 8.500 M384.005 26.457 C 380.569 27.026,378.581 28.172,377.643 30.124 C 376.602 32.290,375.844 36.961,376.373 37.950 C 377.193 39.482,381.790 43.286,384.428 44.614 L 387.180 46.000 393.590 46.000 L 400.000 46.000 400.000 36.000 L 400.000 26.000 393.100 26.047 C 389.305 26.072,385.212 26.257,384.005 26.457 M211.290 28.300 C 210.354 30.500,208.400 36.609,208.400 37.336 C 208.400 37.608,209.296 38.713,210.392 39.792 L 212.383 41.753 213.892 40.537 C 216.642 38.320,216.771 37.741,215.418 33.708 C 213.857 29.052,212.760 26.400,212.396 26.400 C 212.232 26.400,211.735 27.255,211.290 28.300 M0.000 51.419 L 0.000 74.037 6.500 73.885 C 12.253 73.751,13.326 73.615,15.837 72.704 C 23.916 69.774,45.031 68.861,59.800 70.805 C 61.340 71.008,68.224 71.180,75.097 71.187 L 87.595 71.200 97.097 73.978 C 102.324 75.506,108.074 77.142,109.875 77.615 C 114.697 78.880,121.617 84.761,121.595 87.575 C 121.576 90.072,117.260 97.253,114.396 99.555 C 112.302 101.238,111.909 101.322,100.200 102.577 C 86.320 104.064,87.474 103.833,86.579 105.310 C 86.150 106.017,85.240 107.919,84.556 109.537 L 83.311 112.479 84.084 115.554 C 85.474 121.091,86.961 123.497,90.190 125.434 C 94.687 128.131,97.107 130.591,99.923 135.326 C 102.734 140.053,105.136 142.382,109.672 144.778 L 112.280 146.156 115.840 143.352 C 117.798 141.810,120.353 139.908,121.519 139.125 C 123.069 138.084,124.123 136.910,125.446 134.751 C 127.762 130.973,130.662 128.011,134.234 125.774 L 137.067 124.000 150.034 123.997 C 170.680 123.992,172.338 123.387,173.608 115.400 L 174.053 112.600 172.726 111.618 C 171.451 110.673,168.512 107.753,160.632 99.600 C 157.688 96.554,156.612 95.095,155.213 92.250 C 153.030 87.813,153.038 87.254,155.351 82.595 C 159.938 73.355,169.185 68.435,184.721 66.968 C 187.555 66.701,187.700 66.634,189.621 64.703 C 192.021 62.290,192.016 62.577,189.700 60.310 L 187.800 58.450 183.600 58.008 C 176.988 57.311,169.298 56.001,165.700 54.959 L 162.400 54.004 158.934 55.008 C 155.472 56.011,148.832 57.152,141.531 57.998 C 136.035 58.635,126.070 56.002,115.638 51.156 L 112.276 49.594 110.851 50.435 C 107.625 52.338,99.783 55.190,92.272 57.191 L 87.545 58.451 81.941 57.807 C 74.544 56.958,68.337 55.820,64.512 54.612 C 60.293 53.280,57.053 52.622,45.800 50.808 C 29.108 48.119,25.530 46.125,21.003 36.989 C 17.428 29.775,15.715 28.822,6.300 28.809 L 0.000 28.800 0.000 51.419 M235.214 60.348 L 233.266 62.296 234.061 65.463 C 235.428 70.908,237.101 73.819,238.800 73.709 C 245.788 73.254,247.945 71.286,248.662 64.711 C 248.950 62.070,249.667 62.604,242.263 59.953 C 236.945 58.049,237.547 58.015,235.214 60.348 M260.600 76.254 C 260.160 76.343,258.748 76.620,257.462 76.870 C 253.420 77.657,251.896 79.797,251.334 85.482 C 250.611 92.777,257.490 97.354,265.708 95.047 C 282.078 90.452,316.357 90.279,332.600 94.709 L 336.600 95.800 351.000 95.800 C 369.014 95.800,371.156 95.186,373.295 89.403 L 373.989 87.525 372.231 85.263 C 370.197 82.646,366.973 79.439,364.423 77.496 L 362.646 76.142 360.036 77.667 C 347.960 84.724,324.930 84.483,314.121 77.188 L 312.360 76.000 286.880 76.046 C 272.866 76.072,261.040 76.165,260.600 76.254 M0.000 119.200 L 0.000 141.600 6.356 141.600 L 12.711 141.600 17.435 139.971 C 23.659 137.825,23.448 137.964,26.983 133.683 C 28.670 131.638,31.827 128.506,33.998 126.723 C 37.295 124.014,38.109 123.112,38.948 121.240 C 40.524 117.720,41.715 112.963,41.242 112.078 C 40.461 110.619,37.620 108.436,35.923 107.992 C 28.108 105.944,20.341 102.546,15.476 99.047 L 12.351 96.800 6.176 96.800 L 0.000 96.800 0.000 119.200 M210.549 103.491 C 208.103 106.367,206.382 108.090,203.559 110.491 C 202.162 111.678,200.565 113.642,199.266 115.767 C 196.015 121.088,190.154 125.654,185.886 126.191 C 178.896 127.070,177.135 128.790,176.217 135.634 L 175.971 137.467 178.285 139.004 C 179.558 139.849,182.150 141.763,184.044 143.256 C 186.555 145.237,187.909 146.030,189.044 146.184 C 189.900 146.300,194.110 146.763,198.400 147.213 C 202.690 147.663,208.090 148.290,210.400 148.608 C 214.828 149.216,222.482 149.790,231.800 150.213 L 237.400 150.467 240.030 148.333 C 241.476 147.160,243.981 145.120,245.596 143.800 C 247.210 142.480,249.474 140.646,250.627 139.725 C 251.779 138.803,252.829 137.876,252.960 137.664 C 253.300 137.115,250.530 126.739,246.803 114.600 C 246.398 113.280,245.847 111.210,245.578 110.000 C 244.939 107.116,243.500 104.294,242.113 103.203 C 239.650 101.265,239.104 101.200,225.400 101.200 L 212.497 101.200 210.549 103.491 M384.473 102.239 C 381.906 103.518,380.582 105.592,379.389 110.202 C 377.131 118.922,370.853 123.331,358.000 125.224 C 345.571 127.054,340.177 128.117,334.733 129.811 C 331.306 130.878,324.323 132.103,316.800 132.957 C 312.978 133.391,310.669 133.919,307.001 135.198 C 300.595 137.432,300.798 137.266,302.770 138.641 C 305.969 140.872,310.209 144.082,311.239 145.053 L 312.277 146.032 315.639 145.059 C 324.558 142.476,336.663 141.254,340.187 142.581 C 349.705 146.163,354.768 151.655,358.151 162.065 C 361.033 170.934,360.614 170.548,370.601 173.543 C 385.992 178.158,387.156 178.400,393.964 178.400 L 400.000 178.400 400.000 139.800 L 400.000 101.200 393.279 101.200 C 386.844 101.200,386.468 101.244,384.473 102.239 M222.200 175.260 C 219.120 175.449,214.620 175.864,212.200 176.183 C 209.780 176.501,203.210 177.252,197.600 177.852 L 187.400 178.942 185.714 180.409 C 184.787 181.216,182.312 183.093,180.214 184.580 C 175.933 187.614,175.968 187.543,177.567 189.954 C 180.974 195.089,186.229 199.032,189.151 198.645 C 201.604 196.995,220.261 195.245,228.000 194.999 C 236.217 194.738,244.043 194.043,255.325 192.570 C 264.613 191.357,275.665 192.346,284.983 195.224 L 287.693 196.061 288.746 195.067 C 289.787 194.086,294.019 190.880,297.210 188.656 C 299.080 187.352,298.971 187.159,295.600 185.820 C 289.722 183.486,289.561 183.467,274.200 183.202 L 259.800 182.954 254.907 181.487 C 249.700 179.925,240.466 176.371,239.064 175.390 C 238.104 174.717,231.824 174.669,222.200 175.260 M85.600 177.469 C 83.007 179.458,79.797 182.653,77.766 185.267 L 76.004 187.535 77.902 188.930 C 79.919 190.414,84.719 195.277,86.446 197.588 L 87.484 198.976 90.520 198.539 C 96.130 197.731,97.728 196.148,98.526 190.611 C 99.050 186.973,98.522 186.005,93.179 180.800 C 88.125 175.877,87.839 175.751,85.600 177.469 M333.163 184.573 C 324.856 187.114,324.831 187.338,332.554 189.969 L 337.525 191.662 340.369 190.414 C 346.778 187.601,346.929 187.258,342.647 185.233 C 338.297 183.175,337.837 183.143,333.163 184.573 M108.047 201.632 C 103.733 202.480,102.287 204.208,101.433 209.537 C 100.632 214.540,97.589 217.598,90.400 220.623 C 88.530 221.410,86.640 222.383,86.200 222.784 C 82.826 225.863,75.239 229.605,67.800 231.859 L 63.400 233.192 50.552 233.196 L 37.704 233.200 33.596 234.420 C 29.462 235.649,26.392 236.967,26.409 237.508 C 26.438 238.478,30.974 242.334,34.720 244.575 L 37.241 246.083 40.920 245.030 C 44.650 243.963,51.309 242.819,58.623 241.990 L 62.646 241.533 66.085 242.920 C 75.860 246.862,81.038 253.236,83.936 264.893 C 84.776 268.275,86.371 272.401,87.244 273.452 C 87.588 273.867,87.989 273.840,89.335 273.309 C 92.952 271.881,94.298 270.090,95.611 264.955 C 96.986 259.581,102.654 252.607,109.227 248.202 C 110.862 247.106,113.820 244.934,115.800 243.375 C 117.780 241.816,120.353 239.902,121.519 239.121 C 123.072 238.081,124.121 236.914,125.446 234.751 C 128.785 229.305,134.772 224.402,138.800 223.816 C 146.464 222.700,147.939 221.340,148.660 214.727 C 149.044 211.212,145.662 206.377,140.329 202.816 L 137.909 201.200 123.854 201.244 C 116.124 201.268,109.011 201.443,108.047 201.632 M160.600 226.254 C 160.160 226.343,158.748 226.620,157.462 226.870 C 153.475 227.646,151.942 229.751,151.340 235.272 L 151.092 237.544 152.568 238.161 C 153.380 238.500,155.941 239.440,158.260 240.249 L 162.476 241.720 165.702 241.027 C 169.210 240.273,172.709 238.881,173.497 237.927 C 174.481 236.735,169.990 231.180,165.437 227.956 C 162.765 226.064,162.320 225.907,160.600 226.254 M285.699 230.401 C 284.803 231.196,282.335 233.076,280.213 234.580 C 275.681 237.793,275.583 237.532,282.177 239.831 L 287.254 241.600 300.129 241.600 C 315.920 241.600,327.005 242.743,334.827 245.178 C 338.218 246.233,339.097 245.446,340.991 239.659 L 341.692 237.518 339.559 235.359 L 337.427 233.200 323.588 233.200 C 307.398 233.200,299.091 232.364,290.470 229.867 L 287.327 228.957 285.699 230.401 M209.039 230.578 C 205.527 232.593,203.544 234.408,200.151 238.715 C 196.049 243.922,194.862 245.146,190.356 248.817 C 184.170 253.857,182.186 259.924,184.697 266.123 C 186.508 270.595,187.254 271.205,190.400 270.786 C 191.830 270.596,197.410 270.241,202.800 269.997 C 213.450 269.515,220.498 268.896,230.948 267.524 L 237.696 266.638 239.648 264.675 C 241.953 262.358,241.909 262.682,240.404 259.145 C 238.728 255.207,237.890 254.181,234.663 252.112 C 231.203 249.894,225.558 244.311,223.226 240.800 C 221.228 237.791,212.904 229.194,212.007 229.212 C 211.673 229.219,210.338 229.834,209.039 230.578 M384.609 254.851 C 381.444 255.873,374.985 257.016,367.931 257.803 C 360.701 258.610,357.122 259.685,354.901 261.715 L 354.002 262.537 355.501 263.378 C 358.285 264.941,361.955 266.428,364.988 267.222 C 375.153 269.885,378.863 274.950,380.387 288.250 C 381.411 297.184,382.378 299.910,385.269 302.004 L 386.920 303.200 393.460 303.200 L 400.000 303.200 400.000 278.600 L 400.000 254.000 393.500 254.040 C 388.252 254.072,386.540 254.228,384.609 254.851 M0.000 289.000 L 0.000 303.200 6.510 303.200 C 20.492 303.200,24.066 304.489,25.588 310.080 C 26.608 313.826,32.098 316.141,42.400 317.169 C 48.558 317.783,55.640 319.006,59.480 320.118 L 62.621 321.028 65.493 320.128 C 68.777 319.100,75.917 317.862,83.200 317.059 C 88.304 316.496,92.807 315.059,95.173 313.236 C 97.564 311.394,93.919 303.608,89.800 301.759 C 89.360 301.562,76.940 301.310,62.200 301.200 C 28.282 300.947,29.520 301.341,28.556 290.476 C 28.091 285.235,23.418 279.936,15.939 276.169 L 13.220 274.800 6.610 274.800 L 0.000 274.800 0.000 289.000 M109.600 279.525 C 98.428 282.447,98.560 292.981,109.800 295.547 C 110.900 295.798,114.500 296.279,117.800 296.615 C 121.100 296.951,126.050 297.496,128.800 297.825 C 139.115 299.061,141.886 298.968,145.151 297.274 C 147.242 296.188,149.959 288.625,148.707 287.374 C 147.618 286.285,137.723 283.465,133.200 282.954 C 123.816 281.894,118.363 280.843,112.653 278.992 C 112.404 278.911,111.030 279.151,109.600 279.525 M158.047 301.612 C 153.398 302.578,152.259 304.162,151.212 311.121 C 149.986 319.270,148.437 320.757,140.476 321.431 C 132.761 322.085,122.085 332.761,121.431 340.476 C 120.856 347.267,118.357 350.752,114.035 350.791 C 113.504 350.796,112.244 351.330,111.235 351.977 C 106.578 354.964,102.363 356.240,92.072 357.780 C 86.061 358.679,80.867 360.046,77.510 361.611 C 76.851 361.918,75.755 363.242,74.737 364.960 C 72.510 368.717,69.295 372.035,65.719 374.264 L 62.804 376.080 57.502 375.626 C 41.193 374.229,29.085 374.974,15.800 378.190 C 14.208 378.576,11.145 378.776,6.700 378.786 L 0.000 378.800 0.000 389.400 L 0.000 400.000 59.800 400.000 L 119.600 400.000 119.600 393.458 C 119.600 382.033,120.792 371.240,122.651 365.837 C 123.188 364.277,123.909 361.861,124.254 360.469 C 125.650 354.823,131.441 352.403,140.760 353.571 C 147.881 354.464,150.762 356.644,150.806 361.171 C 150.825 363.147,159.061 366.172,166.800 367.046 C 174.346 367.898,181.341 369.127,184.687 370.190 C 189.526 371.727,195.686 369.675,197.495 365.923 C 197.952 364.975,199.018 362.762,199.863 361.004 C 201.778 357.023,205.482 352.981,209.287 350.721 C 212.445 348.845,212.873 348.747,222.800 347.629 C 238.060 345.910,246.278 345.200,253.531 344.973 C 266.921 344.554,287.425 342.040,293.252 340.102 C 297.817 338.585,298.369 338.173,300.384 334.779 C 302.541 331.149,304.308 329.188,307.380 327.014 C 312.260 323.559,311.696 323.676,334.600 321.360 C 335.920 321.227,338.498 320.688,340.329 320.163 C 344.246 319.041,350.939 317.872,358.213 317.041 C 363.158 316.476,365.651 315.817,371.500 313.529 C 373.901 312.589,374.000 312.372,372.545 311.228 C 369.630 308.935,367.548 308.678,349.600 308.395 C 331.519 308.110,325.459 307.527,317.200 305.278 C 313.540 304.282,312.857 304.234,298.600 303.986 C 284.279 303.737,277.926 303.250,264.327 301.359 L 262.453 301.099 261.798 302.649 C 261.438 303.502,260.240 306.900,259.135 310.200 C 255.063 322.362,251.591 327.047,243.800 330.891 C 239.101 333.210,238.033 333.405,232.896 332.884 C 211.589 330.722,201.863 325.988,197.391 315.600 C 195.964 312.287,188.210 304.120,186.207 303.822 C 175.809 302.275,160.604 301.082,158.047 301.612 M165.783 325.776 C 169.173 327.889,172.462 331.244,174.574 334.742 L 176.108 337.283 175.415 338.742 C 172.701 344.452,164.623 351.610,161.633 350.955 C 155.601 349.634,154.511 348.256,153.571 340.760 C 152.508 332.283,154.713 326.015,159.257 324.597 C 161.990 323.745,162.741 323.880,165.783 325.776 M334.337 355.407 C 330.581 357.335,327.302 360.521,325.005 364.475 C 319.046 374.731,311.019 378.603,292.800 380.011 C 286.402 380.505,283.350 381.607,277.300 385.609 L 274.800 387.263 274.800 393.631 L 274.800 400.000 311.800 400.000 L 348.800 400.000 348.800 393.683 L 348.800 387.367 350.802 384.114 C 352.992 380.555,355.861 377.749,359.470 375.636 C 364.955 372.425,368.965 369.004,372.251 364.733 L 374.002 362.459 370.901 361.279 C 365.329 359.160,362.662 358.448,358.600 357.995 C 351.433 357.197,344.602 356.032,341.060 355.006 C 336.875 353.793,337.558 353.753,334.337 355.407 M210.438 376.759 C 205.519 378.754,204.281 381.784,204.083 392.300 L 203.939 400.000 213.969 400.000 L 224.000 400.000 224.000 393.770 L 224.000 387.539 222.236 385.270 C 219.817 382.158,213.122 375.900,212.342 376.022 C 212.264 376.035,211.407 376.366,210.438 376.759 " stroke="none" fill="#343434" fill-rule="evenodd"></path><path id="path4" d="M150.000 5.748 C 150.000 19.313,148.037 22.992,140.033 24.422 C 136.963 24.970,131.849 28.431,125.064 34.550 L 121.929 37.378 123.064 38.289 C 123.689 38.790,127.134 40.665,130.719 42.456 L 137.239 45.711 140.119 44.595 C 148.508 41.346,152.905 38.349,153.557 35.436 C 155.580 26.397,167.298 25.971,170.941 34.804 C 171.348 35.792,171.812 36.870,171.971 37.200 C 172.640 38.586,179.552 42.548,185.250 44.812 L 187.500 45.706 189.429 44.753 C 193.861 42.563,196.099 38.762,195.028 35.245 C 193.052 28.761,189.702 22.884,187.494 22.032 C 179.441 18.925,178.271 17.046,178.070 6.900 L 177.934 -0.000 176.167 -0.000 L 174.400 0.000 174.400 6.110 C 174.400 20.954,173.394 22.999,165.615 23.974 C 156.291 25.144,153.254 21.207,152.905 7.500 L 152.714 0.000 151.357 0.000 L 150.000 0.000 150.000 5.748 M224.800 6.184 C 224.800 11.435,224.949 12.959,225.787 16.284 C 226.795 20.280,228.512 30.117,229.020 34.800 C 229.782 41.826,233.329 44.981,241.800 46.168 C 248.517 47.109,252.655 47.848,258.113 49.079 L 262.827 50.142 265.634 48.784 C 270.179 46.585,278.000 39.518,278.000 37.610 C 278.000 36.623,266.261 27.219,261.000 23.992 C 257.304 21.726,253.511 18.019,251.570 14.777 L 250.000 12.153 250.000 6.077 L 250.000 0.000 248.600 0.000 L 247.200 0.000 247.200 6.546 L 247.200 13.093 248.675 16.040 C 251.024 20.737,255.965 25.275,260.800 27.176 C 263.224 28.130,274.000 36.707,274.000 37.683 C 274.000 38.522,268.469 43.525,265.600 45.280 L 262.600 47.116 257.600 46.179 C 254.850 45.664,249.014 44.835,244.632 44.337 L 236.663 43.431 234.381 41.319 C 231.522 38.671,231.433 38.412,230.625 30.400 C 230.259 26.770,229.584 21.820,229.125 19.400 C 228.537 16.298,228.239 12.788,228.114 7.500 L 227.938 0.000 226.369 0.000 L 224.800 0.000 224.800 6.184 M188.480 26.900 C 190.028 28.964,191.836 32.389,192.810 35.101 L 193.708 37.602 192.565 39.250 C 191.413 40.913,188.254 43.600,187.451 43.600 C 186.860 43.600,177.617 38.936,176.520 38.083 C 175.677 37.429,175.657 37.263,176.043 34.206 C 176.896 27.441,177.877 26.679,187.053 25.651 C 187.301 25.623,187.944 26.185,188.480 26.900 M143.410 29.238 C 146.106 30.247,147.778 32.114,148.640 35.077 L 149.301 37.351 148.350 38.131 C 147.828 38.560,145.185 40.000,142.477 41.331 L 137.554 43.751 132.771 41.386 C 130.141 40.085,127.519 38.646,126.944 38.188 L 125.900 37.356 128.450 35.117 C 136.998 27.613,138.007 27.216,143.410 29.238 M83.311 30.982 C 80.193 32.259,76.846 34.076,73.498 36.310 C 71.645 37.546,71.762 37.723,76.154 40.360 C 79.356 42.283,80.875 43.024,85.203 44.775 L 87.406 45.667 91.003 44.105 C 93.885 42.854,102.069 38.445,102.757 37.773 C 103.707 36.845,90.085 29.567,87.494 29.617 C 87.002 29.627,85.120 30.241,83.311 30.982 M93.049 33.949 C 95.222 35.053,97.518 36.309,98.152 36.740 L 99.304 37.524 97.152 38.761 C 95.968 39.441,93.338 40.831,91.306 41.850 L 87.611 43.703 85.506 42.811 C 82.585 41.572,76.000 37.927,76.000 37.547 C 76.000 37.123,81.050 34.204,84.547 32.608 C 87.795 31.125,87.353 31.055,93.049 33.949 M210.425 55.306 C 202.633 59.231,202.653 70.772,210.458 74.427 L 212.497 75.382 214.828 72.902 C 217.139 70.443,219.732 65.842,220.241 63.295 C 220.737 60.814,218.021 57.047,214.405 55.202 C 212.474 54.218,212.590 54.215,210.425 55.306 M334.600 55.912 C 331.705 57.454,325.949 61.297,325.222 62.174 C 324.376 63.193,335.154 70.415,337.487 70.393 C 339.133 70.378,348.824 64.380,349.828 62.754 C 350.536 61.609,344.888 57.271,340.332 55.460 C 337.139 54.192,337.951 54.128,334.600 55.912 M215.219 58.293 C 219.327 61.986,219.080 64.583,214.071 70.376 L 212.536 72.151 211.305 71.275 C 209.676 70.115,207.754 67.158,206.931 64.547 L 206.266 62.437 207.421 60.769 C 208.627 59.029,211.752 56.400,212.614 56.400 C 212.889 56.400,214.061 57.252,215.219 58.293 M342.112 58.707 C 343.823 59.734,345.623 61.002,346.112 61.525 L 347.000 62.477 345.698 63.569 C 344.982 64.170,342.836 65.591,340.929 66.728 L 337.462 68.795 335.631 67.737 C 327.046 62.773,327.041 62.754,333.200 58.836 C 337.632 56.018,337.626 56.018,342.112 58.707 M184.200 80.891 C 181.680 82.286,177.795 84.894,175.852 86.495 L 174.704 87.441 176.932 90.068 C 179.607 93.221,186.757 100.000,187.407 100.000 C 188.996 100.000,200.000 88.652,200.000 87.013 C 200.000 81.675,189.873 77.751,184.200 80.891 M33.927 81.962 C 29.977 83.648,24.714 87.214,25.241 87.849 C 25.994 88.757,32.542 93.067,35.194 94.401 L 37.788 95.706 42.343 95.434 C 49.913 94.981,52.008 93.849,52.772 89.800 C 53.242 87.305,53.059 87.100,48.200 84.665 C 40.455 80.785,37.845 80.290,33.927 81.962 M192.000 82.936 C 192.990 83.401,194.576 84.556,195.523 85.503 L 197.247 87.226 196.033 88.758 C 195.366 89.601,193.182 91.849,191.180 93.754 L 187.541 97.217 184.890 94.788 C 183.432 93.452,181.251 91.266,180.042 89.931 L 177.845 87.503 178.972 86.652 C 186.028 81.322,187.603 80.873,192.000 82.936 M43.550 84.622 C 49.561 87.199,49.584 87.221,48.201 89.034 C 46.894 90.748,43.346 92.522,39.794 93.237 L 37.388 93.721 33.673 91.424 C 31.630 90.160,29.486 88.719,28.908 88.222 L 27.857 87.319 30.743 85.633 C 37.224 81.848,37.102 81.858,43.550 84.622 M60.001 97.240 C 55.917 98.039,54.768 100.486,54.666 108.600 L 54.600 113.800 56.287 117.250 C 57.372 119.468,58.774 121.540,60.212 123.050 L 62.450 125.400 64.805 122.911 C 67.352 120.218,69.935 115.452,70.293 112.783 C 70.863 108.536,64.831 96.589,62.245 96.844 C 62.000 96.868,60.990 97.046,60.001 97.240 M64.034 102.500 C 65.668 104.741,66.736 106.839,67.838 109.968 L 68.742 112.536 67.407 115.186 C 66.085 117.811,63.051 122.009,62.491 121.990 C 61.994 121.973,58.542 117.113,57.384 114.800 C 55.696 111.428,57.469 104.685,60.757 101.975 C 62.571 100.480,62.561 100.478,64.034 102.500 M284.600 105.442 C 279.436 107.614,274.579 110.251,272.715 111.893 C 270.870 113.519,277.992 120.726,284.495 123.814 L 287.415 125.201 291.266 124.224 C 294.991 123.279,304.878 121.550,309.800 120.983 C 313.959 120.504,320.820 117.511,326.502 113.696 C 328.355 112.453,328.238 112.274,323.846 109.645 C 320.496 107.639,319.543 107.168,315.312 105.425 L 312.824 104.400 299.912 104.416 C 287.025 104.433,286.995 104.435,284.600 105.442 M317.792 108.821 C 324.345 112.120,324.476 112.227,323.200 113.213 C 320.905 114.986,312.581 118.800,311.006 118.800 C 308.613 118.800,299.703 119.919,293.078 121.052 L 287.155 122.065 284.478 120.363 C 281.763 118.638,276.000 113.365,276.000 112.606 C 276.000 112.059,276.928 111.496,282.391 108.727 L 286.981 106.400 299.982 106.400 L 312.983 106.400 317.792 108.821 M33.400 150.844 C 26.233 152.745,16.419 154.082,8.100 154.290 L -0.000 154.492 -0.000 155.446 L 0.000 156.400 6.700 156.396 C 14.823 156.391,24.847 155.345,34.715 153.471 L 37.630 152.918 40.604 154.759 C 43.280 156.416,49.200 161.677,49.200 162.399 C 49.200 163.553,43.345 168.740,39.565 170.935 L 37.730 172.000 18.865 172.000 L 0.000 172.000 0.000 173.600 L 0.000 175.200 18.836 175.200 L 37.673 175.200 41.136 173.403 C 48.103 169.788,53.818 163.781,52.475 161.484 C 50.353 157.854,45.523 153.672,40.797 151.372 C 37.629 149.830,37.310 149.807,33.400 150.844 M132.790 153.253 C 123.279 160.636,121.829 162.110,122.605 163.610 C 124.255 166.800,129.805 171.571,134.462 173.803 L 137.377 175.200 149.989 175.198 L 162.600 175.195 167.200 171.737 C 174.685 166.109,178.091 162.865,177.461 161.965 C 176.838 161.077,169.992 155.316,165.879 152.221 L 162.929 150.000 149.955 150.000 L 136.981 150.000 132.790 153.253 M258.956 152.704 C 257.172 154.187,253.795 156.923,251.451 158.785 C 249.107 160.646,247.251 162.354,247.327 162.581 C 247.547 163.240,254.234 166.996,258.754 168.999 L 262.909 170.841 275.754 170.703 C 291.473 170.535,295.325 169.551,301.548 164.111 L 303.295 162.584 300.348 159.953 C 296.698 156.696,293.768 154.313,290.420 151.877 L 287.840 150.000 275.020 150.004 L 262.200 150.008 258.956 152.704 M164.915 154.705 C 169.192 157.985,174.000 162.058,174.000 162.402 C 174.000 162.835,169.819 166.494,165.818 169.561 L 162.637 172.000 149.846 172.000 L 137.056 172.000 134.428 170.331 C 131.632 168.555,126.000 163.346,126.000 162.536 C 126.000 162.073,129.083 159.395,134.764 154.926 L 137.400 152.852 149.915 152.826 L 162.429 152.800 164.915 154.705 M290.150 154.900 C 291.716 156.055,294.410 158.240,296.136 159.755 L 299.275 162.510 298.137 163.440 C 296.540 164.746,292.024 167.097,289.339 168.021 C 286.212 169.097,263.896 169.210,261.349 168.163 C 258.399 166.951,250.824 162.684,251.030 162.351 C 251.144 162.167,252.984 160.624,255.119 158.923 C 257.253 157.222,259.790 155.148,260.756 154.315 L 262.513 152.800 274.907 152.800 L 287.302 152.800 290.150 154.900 M334.600 155.442 C 330.299 157.250,329.443 157.676,326.154 159.645 C 321.694 162.315,321.650 162.391,323.579 164.134 C 326.701 166.954,334.123 170.385,337.128 170.396 C 338.963 170.403,343.487 166.471,345.029 163.530 C 345.704 162.242,343.640 159.380,339.751 156.212 C 337.157 154.099,337.627 154.169,334.600 155.442 M340.751 159.350 C 344.168 162.790,344.185 162.546,340.266 166.307 L 337.655 168.814 335.018 167.821 C 331.819 166.617,327.590 164.294,326.595 163.194 C 325.658 162.159,325.785 162.060,332.198 158.822 C 338.054 155.866,337.240 155.816,340.751 159.350 M358.800 198.627 C 352.215 201.630,339.655 204.669,335.800 204.191 C 330.658 203.554,320.968 201.879,316.897 200.925 L 312.394 199.869 310.497 201.207 C 307.947 203.006,301.912 207.888,299.200 210.345 C 297.002 212.337,297.001 212.339,297.800 213.132 C 299.070 214.391,305.338 217.811,309.236 219.371 L 312.806 220.800 325.627 220.800 L 338.448 220.800 341.759 222.380 C 347.397 225.071,350.721 228.673,353.403 235.000 C 355.332 239.549,357.273 242.179,360.165 244.164 L 362.445 245.729 364.723 244.806 C 372.816 241.529,376.502 239.191,379.649 235.340 C 381.005 233.681,383.293 231.351,384.735 230.162 L 387.356 228.000 393.678 228.000 L 400.000 228.000 400.000 226.200 L 400.000 224.400 393.500 224.400 L 387.000 224.400 384.435 225.978 C 380.916 228.143,377.897 231.226,375.755 234.843 C 373.854 238.054,371.077 240.020,364.519 242.800 L 362.439 243.682 361.254 242.839 C 358.670 240.999,356.579 238.173,355.855 235.543 C 354.097 229.159,350.483 224.228,345.698 221.682 C 340.347 218.836,340.099 218.800,325.592 218.800 L 312.509 218.800 307.755 216.429 C 305.140 215.125,302.493 213.710,301.873 213.283 L 300.746 212.509 303.526 210.038 C 305.055 208.679,307.696 206.526,309.395 205.253 L 312.485 202.939 315.343 203.484 C 334.700 207.171,344.542 206.830,359.174 201.966 C 362.724 200.786,362.886 200.769,366.701 201.185 C 375.378 202.129,386.190 202.795,392.900 202.797 L 400.000 202.800 400.000 201.452 L 400.000 200.105 392.500 199.884 C 385.813 199.687,367.716 197.914,363.200 197.013 C 362.870 196.947,360.890 197.673,358.800 198.627 M33.741 201.539 C 29.078 204.015,22.000 210.575,22.000 212.422 C 22.000 213.092,26.254 216.415,28.569 217.553 C 34.455 220.447,36.791 220.800,50.056 220.800 L 62.023 220.800 64.511 219.548 C 67.094 218.249,72.185 214.968,74.102 213.369 L 75.203 212.449 73.021 209.877 C 71.821 208.463,69.088 205.662,66.947 203.653 L 63.056 200.000 49.828 200.011 L 36.600 200.021 33.741 201.539 M67.347 207.440 C 69.906 209.993,72.000 212.226,72.000 212.404 C 72.000 212.736,67.904 215.534,64.355 217.626 L 62.365 218.800 49.992 218.800 C 36.134 218.800,35.809 218.745,29.853 215.415 C 26.152 213.345,25.699 212.747,26.731 211.297 C 28.055 209.437,31.024 206.886,34.319 204.774 L 37.400 202.800 50.047 202.800 L 62.693 202.800 67.347 207.440 M257.800 204.635 C 257.360 204.705,252.526 204.962,247.057 205.207 C 235.191 205.738,227.887 207.747,222.894 211.854 L 221.987 212.600 226.840 217.503 C 229.509 220.200,233.011 223.685,234.622 225.248 L 237.553 228.089 240.876 227.649 C 244.149 227.216,255.475 225.896,260.233 225.394 C 263.844 225.013,278.757 213.594,277.547 212.137 C 277.012 211.491,271.214 207.976,269.200 207.076 C 263.347 204.460,261.465 204.057,257.800 204.635 M267.792 208.821 C 274.881 212.390,274.639 212.066,272.000 214.468 C 264.346 221.435,262.861 222.189,255.972 222.599 C 253.237 222.762,247.940 223.205,244.200 223.584 L 237.400 224.273 231.655 218.572 C 225.268 212.234,225.363 212.532,229.130 210.637 C 235.867 207.249,238.850 206.840,259.592 206.462 L 262.983 206.400 267.792 208.821 M132.790 253.258 C 127.746 257.180,123.180 261.070,122.510 262.015 C 121.330 263.680,134.422 270.318,140.200 270.983 C 145.110 271.549,155.006 273.278,158.711 274.218 L 162.539 275.189 163.894 274.156 C 166.560 272.122,170.400 265.377,170.400 262.728 C 170.399 259.122,164.237 254.686,158.000 253.800 C 151.268 252.844,144.625 251.652,141.133 250.772 C 137.016 249.735,137.511 249.588,132.790 253.258 M260.734 251.194 C 252.950 257.610,252.706 270.904,260.310 274.322 C 264.107 276.029,282.196 277.732,299.200 277.984 L 313.800 278.200 315.836 279.274 C 318.268 280.558,319.934 282.362,320.941 284.804 C 321.348 285.792,321.812 286.870,321.971 287.200 C 322.623 288.549,329.122 292.326,334.688 294.588 C 337.171 295.598,337.203 295.600,350.025 295.600 L 362.874 295.600 365.341 293.100 C 370.164 288.213,370.170 287.209,365.409 282.120 L 363.000 279.546 356.400 278.208 C 349.120 276.731,345.177 275.532,340.023 273.226 C 338.141 272.384,335.790 271.359,334.800 270.947 C 332.255 269.891,330.311 267.997,329.235 265.526 C 328.726 264.357,328.181 263.130,328.024 262.800 C 327.436 261.562,322.110 258.395,315.800 255.531 C 313.872 254.656,313.259 254.614,298.800 254.371 C 282.863 254.102,276.926 253.454,266.445 250.838 C 262.234 249.786,262.458 249.772,260.734 251.194 M143.200 253.984 C 145.730 254.430,150.950 255.156,154.800 255.598 C 163.870 256.639,163.094 256.367,166.128 259.583 L 168.765 262.378 167.922 264.289 C 166.858 266.700,165.658 268.582,163.945 270.527 L 162.600 272.055 158.000 271.220 C 152.688 270.255,141.346 268.800,139.145 268.800 C 136.920 268.800,126.000 263.490,126.000 262.408 C 126.000 262.057,129.605 258.981,134.764 254.931 C 136.214 253.792,137.670 252.931,138.000 253.017 C 138.330 253.103,140.670 253.538,143.200 253.984 M272.193 254.627 C 281.845 256.082,286.686 256.392,299.792 256.396 L 312.983 256.400 317.792 258.817 C 324.733 262.305,324.439 261.984,323.988 265.600 C 323.181 272.064,322.081 273.164,315.609 273.975 C 309.750 274.710,290.082 274.511,280.800 273.622 C 276.290 273.191,270.302 272.659,267.493 272.441 C 260.794 271.921,258.777 270.405,256.913 264.489 L 256.230 262.323 257.711 259.461 C 258.525 257.888,259.905 255.771,260.777 254.758 L 262.363 252.916 265.281 253.471 C 266.887 253.775,269.997 254.296,272.193 254.627 M59.000 255.752 C 54.823 257.471,52.786 258.531,49.499 260.695 L 46.798 262.474 47.677 263.737 C 50.835 268.276,54.053 271.012,59.388 273.694 L 62.577 275.298 64.868 272.860 C 67.153 270.429,69.736 265.818,70.248 263.258 C 70.493 262.036,63.812 254.356,62.556 254.417 C 62.360 254.427,60.760 255.027,59.000 255.752 M65.801 259.414 L 68.826 262.429 67.216 265.514 C 66.330 267.211,64.915 269.400,64.070 270.377 L 62.533 272.154 60.567 271.012 C 57.611 269.294,54.284 266.645,52.411 264.517 L 50.738 262.617 51.669 261.855 C 52.630 261.068,61.850 256.400,62.443 256.400 C 62.627 256.400,64.138 257.756,65.801 259.414 M339.189 276.396 C 342.640 277.756,349.954 279.527,355.800 280.418 C 358.880 280.888,361.783 281.344,362.251 281.431 C 362.719 281.519,364.140 282.859,365.408 284.410 C 368.098 287.698,368.097 287.717,364.806 291.317 L 362.720 293.600 349.868 293.600 L 337.017 293.600 332.208 291.183 C 325.227 287.675,325.558 288.049,326.043 284.206 C 326.821 278.041,328.024 276.805,334.000 276.036 C 335.430 275.852,336.728 275.679,336.885 275.651 C 337.042 275.623,338.079 275.958,339.189 276.396 M225.600 279.912 C 219.110 280.194,212.900 280.618,211.800 280.854 C 207.382 281.804,197.400 286.428,197.400 287.525 C 197.400 288.286,210.905 301.709,214.800 304.819 C 216.670 306.312,218.920 308.485,219.800 309.648 C 222.796 313.608,227.627 316.862,234.305 319.418 C 237.878 320.786,237.997 320.738,242.364 316.189 L 245.488 312.935 245.960 309.568 C 246.861 303.146,248.446 294.185,249.221 291.133 C 250.247 287.093,250.212 286.491,248.825 284.304 C 246.020 279.880,242.346 279.185,225.600 279.912 M239.679 282.027 C 245.392 283.951,247.381 286.269,246.584 290.072 C 245.889 293.387,244.600 302.394,243.969 308.346 L 243.486 312.891 240.549 315.838 L 237.612 318.785 234.548 317.389 C 228.287 314.536,226.023 312.881,224.229 309.845 C 222.067 306.188,218.759 302.881,215.149 300.767 C 210.394 297.983,200.338 287.799,201.523 286.969 C 206.652 283.376,212.497 282.099,225.800 281.664 C 231.300 281.484,236.121 281.306,236.513 281.268 C 236.905 281.231,238.330 281.572,239.679 282.027 M385.800 325.251 C 383.322 326.040,375.167 327.606,368.572 328.558 C 358.383 330.029,345.180 336.173,347.841 338.205 C 349.841 339.733,354.350 342.241,357.666 343.671 C 361.613 345.373,361.921 345.444,372.200 347.031 C 375.940 347.608,380.782 348.512,382.960 349.040 C 386.311 349.853,387.923 350.000,393.460 350.000 L 400.000 350.000 400.000 348.600 L 400.000 347.200 394.100 347.200 C 390.445 347.200,386.982 346.966,385.000 346.585 C 380.406 345.702,372.137 344.533,366.800 344.012 C 362.114 343.555,355.930 341.198,351.913 338.338 L 350.735 337.499 351.867 336.727 C 356.855 333.331,361.698 331.503,367.200 330.942 C 373.725 330.277,380.436 329.335,384.126 328.567 C 385.838 328.211,389.298 328.000,393.426 328.000 L 400.000 328.000 400.000 326.400 L 400.000 324.800 393.500 324.834 C 389.925 324.853,386.460 325.041,385.800 325.251 M32.395 330.919 C 28.463 332.275,25.051 334.257,23.045 336.352 L 21.890 337.558 22.755 339.679 C 24.796 344.683,29.685 349.615,34.944 351.975 L 37.529 353.135 40.064 351.667 C 45.248 348.668,53.617 339.000,52.536 337.260 C 51.466 335.539,39.609 329.596,37.260 329.604 C 36.677 329.606,34.488 330.197,32.395 330.919 M83.400 330.950 C 80.281 332.231,74.799 335.248,72.810 336.778 C 70.959 338.201,76.355 342.149,83.170 344.357 L 87.341 345.708 90.570 344.106 C 94.039 342.384,100.000 338.157,100.000 337.419 C 100.000 336.024,94.654 331.961,91.019 330.593 C 87.682 329.337,87.279 329.356,83.400 330.950 M43.550 334.214 C 49.769 337.428,49.543 337.157,47.951 339.472 C 46.255 341.938,41.950 346.247,39.495 347.935 L 37.591 349.245 35.646 348.186 C 32.424 346.433,26.000 339.499,26.000 337.775 C 26.000 336.687,30.069 334.118,34.576 332.360 C 37.779 331.111,37.389 331.031,43.550 334.214 M90.886 332.842 C 92.493 333.659,97.200 337.060,97.200 337.403 C 97.200 337.692,92.225 341.088,89.883 342.399 L 87.567 343.695 85.083 342.800 C 82.449 341.850,78.461 339.732,76.800 338.401 L 75.800 337.600 76.800 336.809 C 77.350 336.373,79.936 334.946,82.546 333.636 C 87.692 331.054,87.423 331.079,90.886 332.842 M273.000 355.060 C 260.350 355.697,253.243 357.622,247.707 361.908 L 246.814 362.600 248.438 365.165 C 251.571 370.113,256.731 375.124,260.866 377.234 L 262.458 378.046 264.342 376.837 C 268.762 374.001,275.473 371.641,283.200 370.206 C 289.399 369.055,292.722 367.709,297.700 364.331 C 300.470 362.451,300.454 362.610,298.100 360.330 C 295.774 358.079,293.815 356.851,290.332 355.463 C 287.324 354.265,288.322 354.288,273.000 355.060 M291.939 358.587 C 298.017 362.263,298.018 362.431,291.985 365.569 C 288.248 367.512,287.599 367.710,282.684 368.407 C 274.580 369.556,269.396 370.928,264.679 373.173 L 262.359 374.278 259.863 372.389 C 257.152 370.337,252.622 365.621,251.498 363.681 L 250.795 362.468 252.098 361.671 C 254.784 360.028,261.440 357.456,263.400 357.304 C 267.710 356.969,281.201 356.490,284.827 356.544 L 288.654 356.600 291.939 358.587 M135.188 378.093 C 131.207 384.127,130.415 386.747,130.407 393.900 L 130.400 400.000 131.400 400.000 L 132.400 400.000 132.400 393.421 L 132.400 386.842 134.227 383.316 C 135.231 381.376,136.364 379.378,136.743 378.875 L 137.433 377.960 142.017 378.788 C 147.415 379.762,158.682 381.200,160.923 381.200 C 162.565 381.200,168.785 383.973,172.500 386.361 L 174.400 387.582 174.400 393.791 L 174.400 400.000 176.200 400.000 L 178.000 400.000 178.000 393.654 L 178.000 387.309 176.500 386.302 C 170.820 382.489,163.958 379.495,159.800 379.017 C 154.879 378.450,144.991 376.721,141.268 375.777 C 139.151 375.239,137.405 374.800,137.389 374.800 C 137.373 374.800,136.383 376.282,135.188 378.093 " stroke="none" fill="#587c80" fill-rule="evenodd"></path></g></svg>